<svg width="24" height="24" viewBox="0 0 24 24" fill="none" xmlns="http://www.w3.org/2000/svg">
<circle cx="12" cy="12" r="12" fill="#FFF4E8"/>
<g clip-path="url(#clip0_1_1158)">
<g clip-path="url(#clip1_1_1158)">
<path d="M19 12.0633C18.612 12.6939 18.2239 13.3142 17.8257 13.9448C17.6419 14.2446 17.2641 14.2549 17.0496 13.9861C16.6207 13.4486 16.2021 12.9007 15.7834 12.3528C15.5587 12.053 15.7221 11.6498 16.0897 11.5877C16.2429 11.5671 16.3961 11.5671 16.5697 11.5567C16.539 11.412 16.5084 11.2673 16.4778 11.1329C15.9876 9.13765 14.2721 7.56629 12.2604 7.27682C12.1685 7.26649 12.0766 7.25615 11.9847 7.24581C11.8417 7.22513 11.7601 7.14243 11.7703 7.01838C11.7805 6.90466 11.8724 6.82196 12.0153 6.83229C12.7404 6.88398 13.4245 7.09074 14.0576 7.43189C15.6302 8.28994 16.5901 9.60286 16.9577 11.3706C17.0496 11.8462 16.9475 11.9702 16.4778 11.9806C16.3961 11.9806 16.3144 11.9806 16.2327 11.9909C16.1816 12.0013 16.1408 12.0219 16.1 12.0323C16.1204 12.0736 16.1306 12.1253 16.1612 12.1667C16.4676 12.5698 16.7841 12.9627 17.0905 13.3659C17.1722 13.4796 17.2641 13.583 17.3458 13.6967C17.3968 13.769 17.4479 13.7794 17.4989 13.6967C17.8461 13.1384 18.2035 12.5802 18.5507 12.0219C18.612 11.9289 18.5814 11.8875 18.469 11.8979C18.2954 11.9082 18.1116 11.9186 17.938 11.9186C17.7542 11.9186 17.6317 11.8152 17.6113 11.6291C17.5296 10.9778 17.3458 10.3575 17.0803 9.75793C17.0496 9.6959 17.07 9.58218 17.1109 9.52016C17.1415 9.46847 17.2436 9.44779 17.3151 9.45813C17.3662 9.46847 17.4274 9.5305 17.4581 9.59252C17.7236 10.1508 17.9074 10.74 17.9993 11.35C18.0095 11.4017 18.0197 11.443 18.0299 11.505C18.1423 11.4947 18.2546 11.4947 18.3669 11.4844C18.663 11.443 18.8877 11.5464 19.0102 11.8359C19 11.8979 19 11.9806 19 12.0633Z" fill="#FE8700"/>
<path d="M5 12.394C5.01021 9.48907 6.84829 6.95627 9.58497 6.07755C12.291 5.20916 15.283 6.24296 16.8964 8.60001C16.9066 8.62068 16.9271 8.64136 16.9373 8.65169C17.0088 8.76541 16.9883 8.87913 16.8964 8.9515C16.8045 9.02386 16.682 9.00318 16.6003 8.89981C16.3756 8.62068 16.1714 8.33122 15.9263 8.07277C14.946 7.05965 13.7513 6.44971 12.3727 6.25329C9.1663 5.79842 6.1539 7.99007 5.531 11.2052C4.97958 14.0791 6.49088 16.9531 9.14588 18.1006C12.0153 19.3308 15.3341 18.1833 16.8658 15.4334C16.876 15.4127 16.8964 15.3817 16.9066 15.361C16.9883 15.1956 16.9373 15.0302 16.7943 14.9475C16.6513 14.8648 16.488 14.9165 16.3961 15.0612C16.2735 15.2473 16.1714 15.4437 16.0489 15.6195C15.1094 16.9324 13.8534 17.7077 12.2706 17.9352C9.44201 18.328 6.77681 16.4465 6.1539 13.6242C5.50036 10.6262 7.29759 7.7006 10.2487 6.96661C10.4734 6.91492 10.698 6.88391 10.9227 6.84256C10.9533 6.83222 10.984 6.84256 11.0146 6.84256C11.1473 6.84256 11.229 6.91492 11.2392 7.03898C11.2495 7.16303 11.178 7.2354 11.0452 7.26641C10.6878 7.33878 10.31 7.38013 9.97301 7.49385C8.13494 8.1348 6.97082 9.4167 6.55215 11.3396C6.01094 13.8 7.35886 16.2914 9.66667 17.2218C12.0357 18.1729 14.7112 17.2115 15.9774 14.9785C16.0999 14.7614 16.2429 14.5857 16.4982 14.5236C16.7943 14.4616 17.0394 14.5443 17.2232 14.7821C17.407 15.0199 17.4274 15.2887 17.2845 15.5574C17.0598 15.9916 16.7739 16.3948 16.4573 16.767C15.4362 17.9352 14.1699 18.6795 12.6484 18.9173C10.1466 19.2998 8.05325 18.4934 6.42961 16.5189C5.63311 15.5368 5.19402 14.3892 5.05106 13.128C5.02042 12.8799 5.01021 12.6421 5 12.394Z" fill="#FE8700"/>
<path d="M8.29834 13.3657C8.21664 13.5725 8.14516 13.7689 8.07368 13.9653C8.03284 14.0687 7.96136 14.1411 7.85924 14.1101C7.78776 14.0894 7.72649 14.017 7.68564 13.955C7.66522 13.924 7.68564 13.8516 7.70607 13.8103C8.06347 12.8075 8.43109 11.8254 8.7987 10.8433C8.83955 10.7399 8.8906 10.6779 9.00293 10.6779C9.11526 10.6779 9.17653 10.7502 9.20716 10.8433C9.57478 11.8254 9.94239 12.8075 10.31 13.7792C10.3611 13.924 10.3202 14.048 10.1977 14.0894C10.0854 14.1307 9.98324 14.0687 9.92197 13.924C9.8607 13.7586 9.79943 13.5932 9.73816 13.4381C9.71774 13.3967 9.67689 13.3554 9.64626 13.3554C9.19695 13.3554 8.74764 13.3657 8.29834 13.3657ZM9.00293 11.4842C8.80891 11.9908 8.63532 12.4663 8.45151 12.9419C8.82934 12.9419 9.17653 12.9419 9.54414 12.9419C9.37055 12.4663 9.19695 11.9908 9.00293 11.4842Z" fill="#FE8700"/>
<path d="M12.1481 12.8386C12.0357 12.8386 11.9336 12.8386 11.8417 12.8386C11.7192 12.8282 11.6375 12.7559 11.6375 12.6421C11.6273 12.5284 11.709 12.425 11.8315 12.425C12.0051 12.4147 12.1889 12.4147 12.3625 12.425C12.4748 12.4354 12.5565 12.5077 12.5565 12.6215C12.5565 12.8592 12.5667 13.1073 12.5055 13.3348C12.3829 13.8413 11.903 14.1515 11.3924 14.1101C10.9125 14.0688 10.4938 13.6656 10.4632 13.159C10.4325 12.6525 10.4325 12.1356 10.4632 11.629C10.4938 11.1431 10.892 10.7503 11.372 10.6883C11.8621 10.6262 12.3421 10.926 12.4953 11.4016C12.5463 11.5567 12.5055 11.6807 12.3829 11.7221C12.2604 11.7634 12.1583 11.7014 12.097 11.536C11.9847 11.2362 11.6885 11.0501 11.4026 11.1018C11.0656 11.1638 10.8614 11.4119 10.8614 11.7634C10.8614 12.1873 10.8614 12.6008 10.8614 13.0246C10.8614 13.4071 11.1371 13.6966 11.4945 13.6966C11.8519 13.6966 12.1276 13.4175 12.1379 13.035C12.1583 12.973 12.1481 12.9213 12.1481 12.8386Z" fill="#FE8700"/>
<path d="M13.4653 12.1769C13.7308 12.1769 13.9861 12.1769 14.2414 12.1769C14.2822 12.1769 14.3231 12.1769 14.3639 12.1769C14.4865 12.1976 14.5579 12.2803 14.5477 12.394C14.5477 12.5078 14.466 12.5905 14.3333 12.6008C14.1188 12.6111 13.9044 12.6008 13.69 12.6008C13.6185 12.6008 13.547 12.6008 13.4653 12.6008C13.4653 12.9626 13.4653 13.3141 13.4653 13.6863C13.5061 13.6863 13.5572 13.6863 13.6083 13.6863C13.8738 13.6863 14.1495 13.6863 14.415 13.6863C14.5375 13.6863 14.6192 13.769 14.6192 13.8827C14.6192 13.9964 14.5375 14.0998 14.415 14.0998C14.0269 14.0998 13.6287 14.0998 13.2406 14.0998C13.1283 14.0998 13.0568 14.0274 13.0466 13.9137C13.0466 13.8724 13.0466 13.8413 13.0466 13.8C13.0466 12.8592 13.0466 11.9185 13.0466 10.9777C13.0466 10.7193 13.0977 10.6676 13.353 10.6676C13.69 10.6676 14.0371 10.6676 14.3741 10.6676C14.5273 10.6676 14.6294 10.7503 14.6192 10.8744C14.6192 11.0088 14.5273 11.0811 14.3639 11.0811C14.0678 11.0811 13.7716 11.0811 13.4653 11.0811C13.4653 11.4533 13.4653 11.8048 13.4653 12.1769Z" fill="#FE8700"/>
</g>
</g>
<defs>
<clipPath id="clip0_1_1158">
<rect width="14" height="14" fill="white" transform="translate(5 5)"/>
</clipPath>
<clipPath id="clip1_1_1158">
<rect width="14" height="13.2222" fill="white" transform="translate(5 5.77783)"/>
</clipPath>
</defs>
</svg>
