<svg width="32" height="32" viewBox="0 0 32 32" fill="none" xmlns="http://www.w3.org/2000/svg">
<circle cx="16" cy="16" r="16" fill="#B349C5"/>
<path d="M14.04 15.9333L19.42 10.56C19.5954 10.379 19.805 10.2346 20.0367 10.1354C20.2684 10.0362 20.5175 9.98405 20.7696 9.98205C21.0216 9.98004 21.2716 10.0282 21.5048 10.1237C21.738 10.2193 21.95 10.3603 22.1282 10.5385C22.3064 10.7167 22.4474 10.9286 22.5429 11.1619C22.6385 11.3951 22.6866 11.645 22.6846 11.8971C22.6826 12.1491 22.6305 12.3983 22.5313 12.6299C22.432 12.8616 22.2877 13.0713 22.1067 13.2467L16.7333 18.6333M12.7133 17.96C11.6067 17.96 10.7133 18.86 10.7133 19.9733C10.7133 20.86 9.04667 20.9867 9.38 21.32C10.1 22.0533 11.04 22.6667 12.0467 22.6667C13.5133 22.6667 14.7133 21.4667 14.7133 19.9733C14.7142 19.7098 14.6632 19.4487 14.5631 19.2049C14.4631 18.9611 14.316 18.7394 14.1303 18.5524C13.9446 18.3655 13.7239 18.2169 13.4807 18.1153C13.2376 18.0136 12.9769 17.9609 12.7133 17.96Z" stroke="white" stroke-width="1.2" stroke-linecap="round" stroke-linejoin="round"/>
</svg>
