<svg width="24" height="24" viewBox="0 0 24 24" fill="none" xmlns="http://www.w3.org/2000/svg">
<path d="M13.8 21.025H10.2C6.8061 21.025 5.1087 21.025 4.0548 19.9702C3 18.9163 3 17.2189 3 13.825V12.025C3 8.63109 3 6.93369 4.0548 5.87979C5.1087 4.82499 6.8061 4.82499 10.2 4.82499H13.8C17.1939 4.82499 18.8913 4.82499 19.9452 5.87979C21 6.93369 21 8.63109 21 12.025V13.825C21 17.2189 21 18.9163 19.9452 19.9702C19.3575 20.5588 18.57 20.8189 17.4 20.9332M7.5 4.82499V3.47499M16.5 4.82499V3.47499M20.55 9.32499H10.875M3 9.32499H6.4875" stroke="#7948EC" stroke-width="1.2" stroke-linecap="round"/>
<path d="M17.4001 16.525C17.4001 16.7637 17.3053 16.9926 17.1365 17.1614C16.9677 17.3302 16.7388 17.425 16.5001 17.425C16.2614 17.425 16.0325 17.3302 15.8637 17.1614C15.6949 16.9926 15.6001 16.7637 15.6001 16.525C15.6001 16.2863 15.6949 16.0574 15.8637 15.8886C16.0325 15.7198 16.2614 15.625 16.5001 15.625C16.7388 15.625 16.9677 15.7198 17.1365 15.8886C17.3053 16.0574 17.4001 16.2863 17.4001 16.525ZM17.4001 12.925C17.4001 13.1637 17.3053 13.3926 17.1365 13.5614C16.9677 13.7302 16.7388 13.825 16.5001 13.825C16.2614 13.825 16.0325 13.7302 15.8637 13.5614C15.6949 13.3926 15.6001 13.1637 15.6001 12.925C15.6001 12.6863 15.6949 12.4574 15.8637 12.2886C16.0325 12.1198 16.2614 12.025 16.5001 12.025C16.7388 12.025 16.9677 12.1198 17.1365 12.2886C17.3053 12.4574 17.4001 12.6863 17.4001 12.925ZM12.9001 16.525C12.9001 16.7637 12.8053 16.9926 12.6365 17.1614C12.4677 17.3302 12.2388 17.425 12.0001 17.425C11.7614 17.425 11.5325 17.3302 11.3637 17.1614C11.1949 16.9926 11.1001 16.7637 11.1001 16.525C11.1001 16.2863 11.1949 16.0574 11.3637 15.8886C11.5325 15.7198 11.7614 15.625 12.0001 15.625C12.2388 15.625 12.4677 15.7198 12.6365 15.8886C12.8053 16.0574 12.9001 16.2863 12.9001 16.525ZM12.9001 12.925C12.9001 13.1637 12.8053 13.3926 12.6365 13.5614C12.4677 13.7302 12.2388 13.825 12.0001 13.825C11.7614 13.825 11.5325 13.7302 11.3637 13.5614C11.1949 13.3926 11.1001 13.1637 11.1001 12.925C11.1001 12.6863 11.1949 12.4574 11.3637 12.2886C11.5325 12.1198 11.7614 12.025 12.0001 12.025C12.2388 12.025 12.4677 12.1198 12.6365 12.2886C12.8053 12.4574 12.9001 12.6863 12.9001 12.925ZM8.4001 16.525C8.4001 16.7637 8.30528 16.9926 8.13649 17.1614C7.96771 17.3302 7.73879 17.425 7.5001 17.425C7.2614 17.425 7.03248 17.3302 6.8637 17.1614C6.69492 16.9926 6.6001 16.7637 6.6001 16.525C6.6001 16.2863 6.69492 16.0574 6.8637 15.8886C7.03248 15.7198 7.2614 15.625 7.5001 15.625C7.73879 15.625 7.96771 15.7198 8.13649 15.8886C8.30528 16.0574 8.4001 16.2863 8.4001 16.525ZM8.4001 12.925C8.4001 13.1637 8.30528 13.3926 8.13649 13.5614C7.96771 13.7302 7.73879 13.825 7.5001 13.825C7.2614 13.825 7.03248 13.7302 6.8637 13.5614C6.69492 13.3926 6.6001 13.1637 6.6001 12.925C6.6001 12.6863 6.69492 12.4574 6.8637 12.2886C7.03248 12.1198 7.2614 12.025 7.5001 12.025C7.73879 12.025 7.96771 12.1198 8.13649 12.2886C8.30528 12.4574 8.4001 12.6863 8.4001 12.925Z" fill="#7948EC"/>
</svg>
