<svg width="32" height="32" viewBox="0 0 32 32" fill="none" xmlns="http://www.w3.org/2000/svg">
<circle cx="16" cy="16" r="16" fill="#F2ECFF"/>
<path d="M17.2 22.0166H14.8C12.5374 22.0166 11.4058 22.0166 10.7032 21.3134C10 20.6108 10 19.4792 10 17.2166V16.0167C10 13.7541 10 12.6225 10.7032 11.9199C11.4058 11.2167 12.5374 11.2167 14.8 11.2167H17.2C19.4626 11.2167 20.5942 11.2167 21.2968 11.9199C22 12.6225 22 13.7541 22 16.0167V17.2166C22 19.4792 22 20.6108 21.2968 21.3134C20.905 21.7058 20.38 21.8793 19.6 21.9555M13 11.2167V10.3167M19 11.2167V10.3167M21.7 14.2167H15.25M10 14.2167H12.325" stroke="#7948EC" stroke-linecap="round"/>
<path d="M19.5999 19.0167C19.5999 19.1758 19.5367 19.3284 19.4242 19.4409C19.3116 19.5534 19.159 19.6167 18.9999 19.6167C18.8408 19.6167 18.6882 19.5534 18.5756 19.4409C18.4631 19.3284 18.3999 19.1758 18.3999 19.0167C18.3999 18.8575 18.4631 18.7049 18.5756 18.5924C18.6882 18.4799 18.8408 18.4167 18.9999 18.4167C19.159 18.4167 19.3116 18.4799 19.4242 18.5924C19.5367 18.7049 19.5999 18.8575 19.5999 19.0167ZM19.5999 16.6167C19.5999 16.7758 19.5367 16.9284 19.4242 17.0409C19.3116 17.1534 19.159 17.2167 18.9999 17.2167C18.8408 17.2167 18.6882 17.1534 18.5756 17.0409C18.4631 16.9284 18.3999 16.7758 18.3999 16.6167C18.3999 16.4575 18.4631 16.3049 18.5756 16.1924C18.6882 16.0799 18.8408 16.0167 18.9999 16.0167C19.159 16.0167 19.3116 16.0799 19.4242 16.1924C19.5367 16.3049 19.5999 16.4575 19.5999 16.6167ZM16.5999 19.0167C16.5999 19.1758 16.5367 19.3284 16.4242 19.4409C16.3116 19.5534 16.159 19.6167 15.9999 19.6167C15.8408 19.6167 15.6882 19.5534 15.5756 19.4409C15.4631 19.3284 15.3999 19.1758 15.3999 19.0167C15.3999 18.8575 15.4631 18.7049 15.5756 18.5924C15.6882 18.4799 15.8408 18.4167 15.9999 18.4167C16.159 18.4167 16.3116 18.4799 16.4242 18.5924C16.5367 18.7049 16.5999 18.8575 16.5999 19.0167ZM16.5999 16.6167C16.5999 16.7758 16.5367 16.9284 16.4242 17.0409C16.3116 17.1534 16.159 17.2167 15.9999 17.2167C15.8408 17.2167 15.6882 17.1534 15.5756 17.0409C15.4631 16.9284 15.3999 16.7758 15.3999 16.6167C15.3999 16.4575 15.4631 16.3049 15.5756 16.1924C15.6882 16.0799 15.8408 16.0167 15.9999 16.0167C16.159 16.0167 16.3116 16.0799 16.4242 16.1924C16.5367 16.3049 16.5999 16.4575 16.5999 16.6167ZM13.5999 19.0167C13.5999 19.1758 13.5367 19.3284 13.4242 19.4409C13.3116 19.5534 13.159 19.6167 12.9999 19.6167C12.8408 19.6167 12.6882 19.5534 12.5756 19.4409C12.4631 19.3284 12.3999 19.1758 12.3999 19.0167C12.3999 18.8575 12.4631 18.7049 12.5756 18.5924C12.6882 18.4799 12.8408 18.4167 12.9999 18.4167C13.159 18.4167 13.3116 18.4799 13.4242 18.5924C13.5367 18.7049 13.5999 18.8575 13.5999 19.0167ZM13.5999 16.6167C13.5999 16.7758 13.5367 16.9284 13.4242 17.0409C13.3116 17.1534 13.159 17.2167 12.9999 17.2167C12.8408 17.2167 12.6882 17.1534 12.5756 17.0409C12.4631 16.9284 12.3999 16.7758 12.3999 16.6167C12.3999 16.4575 12.4631 16.3049 12.5756 16.1924C12.6882 16.0799 12.8408 16.0167 12.9999 16.0167C13.159 16.0167 13.3116 16.0799 13.4242 16.1924C13.5367 16.3049 13.5999 16.4575 13.5999 16.6167Z" fill="#7948EC"/>
</svg>
