<svg width="48" height="48" viewBox="0 0 48 48" fill="none" xmlns="http://www.w3.org/2000/svg">
<circle cx="24" cy="24" r="24" fill="#E2F5EF"/>
<path fill-rule="evenodd" clip-rule="evenodd" d="M17.2918 15.729C18.4151 14.6171 20.2648 14.8147 21.2053 16.0662L22.3702 17.6136C23.1362 18.6318 23.0679 20.0542 22.1588 20.9538L21.9391 21.1725C21.9143 21.2644 21.9118 21.3607 21.9317 21.4537C21.9899 21.8286 22.3046 22.6226 23.6227 23.9274C24.9407 25.2322 25.7437 25.5447 26.1258 25.6035C26.222 25.6238 26.3217 25.621 26.4166 25.5952L26.7932 25.2221C27.6017 24.4227 28.8422 24.2729 29.8427 24.8141L31.6057 25.7698C33.1166 26.5858 33.4978 28.6294 32.261 29.8543L30.9494 31.1518C30.5359 31.5607 29.9803 31.9016 29.3028 31.965C27.6322 32.1203 23.7399 31.9219 19.6482 27.8723C15.8298 24.0919 15.0969 20.7949 15.0037 19.1702C14.9576 18.3488 15.3471 17.6541 15.8436 17.1634L17.2918 15.729ZM20.0977 16.8923C19.6298 16.2702 18.7585 16.2206 18.2674 16.7067L16.8183 18.1402C16.5137 18.4416 16.3679 18.7742 16.3864 19.0921C16.4602 20.3832 17.0509 23.3577 20.6248 26.8955C24.374 30.606 27.8361 30.7172 29.1745 30.5922C29.4477 30.5674 29.7191 30.4259 29.9729 30.175L31.2835 28.8766C31.817 28.3492 31.6998 27.388 30.9448 26.98L29.1819 26.0253C28.6945 25.7625 28.1241 25.8488 27.7697 26.1998L27.3497 26.6161L26.8605 26.1273C27.3497 26.6161 27.3488 26.617 27.3479 26.617L27.347 26.6189L27.3442 26.6216L27.3377 26.6271L27.3239 26.64C27.2846 26.6757 27.2427 26.7082 27.1984 26.7374C27.1245 26.7861 27.0267 26.8403 26.9039 26.8853C26.6547 26.9782 26.3243 27.0278 25.9163 26.9653C25.1161 26.8431 24.0556 26.3 22.6461 24.9051C21.2376 23.5102 20.6875 22.4608 20.5639 21.6651C20.5002 21.2589 20.5509 20.9299 20.6451 20.6818C20.6973 20.5424 20.7714 20.4121 20.8647 20.2959L20.8943 20.2637L20.9072 20.25L20.9127 20.2444L20.9155 20.2417L20.9174 20.2399L21.1832 19.977C21.5782 19.5847 21.6336 18.935 21.2616 18.4397L20.0977 16.8923Z" fill="#24B07C"/>
</svg>
