<svg width="32" height="32" viewBox="0 0 32 32" fill="none" xmlns="http://www.w3.org/2000/svg">
<circle cx="16" cy="16" r="16" fill="#F2ECFF"/>
<path d="M10 15.1628C10 15.2738 10.0441 15.3803 10.1226 15.4588C10.2011 15.5373 10.3076 15.5814 10.4186 15.5814C10.5296 15.5814 10.6361 15.5373 10.7146 15.4588C10.7931 15.3803 10.8372 15.2738 10.8372 15.1628H10ZM11.018 18.0238C10.9756 17.9212 10.8941 17.8397 10.7915 17.7972C10.6889 17.7548 10.5737 17.7547 10.4711 17.7972C10.3685 17.8397 10.287 17.9212 10.2445 18.0238C10.202 18.1264 10.202 18.2416 10.2445 18.3442L11.018 18.0238ZM16.9667 21.453L17.2692 20.9418L16.5492 20.5154L16.2462 21.0266L16.9667 21.453ZM14.7308 20.9418L15.0333 21.453L15.7533 21.0266L15.4514 20.5154L14.7308 20.9418ZM16.2462 21.0266C16.2201 21.0684 16.1838 21.1028 16.1407 21.1267C16.0977 21.1506 16.0492 21.1631 16 21.1631C15.9508 21.1631 15.9024 21.1506 15.8593 21.1267C15.8162 21.1028 15.78 21.0684 15.7539 21.0266L15.0333 21.453C15.4648 22.1825 16.5347 22.1825 16.9667 21.453L16.2467 21.0266H16.2462ZM15.1628 10.8372H16.8372V10H15.1628V10.8372ZM21.1628 15.1628V15.7209H22V15.1628H21.1628ZM13.6575 19.4839C12.9565 19.4717 12.5892 19.427 12.3012 19.3076L11.9814 20.0811C12.4307 20.2676 12.942 20.3094 13.643 20.3217L13.6575 19.4839ZM10.2445 18.3442C10.4057 18.7336 10.6422 19.0874 10.9402 19.3854C11.2382 19.6835 11.592 19.9199 11.9814 20.0811L12.3012 19.3076C11.72 19.0668 11.2588 18.605 11.018 18.0238L10.2445 18.3442ZM21.1628 15.7209C21.1628 16.3768 21.1628 16.8478 21.1371 17.2196C21.112 17.5874 21.064 17.8274 20.9825 18.0238L21.7556 18.3442C21.8867 18.0283 21.9442 17.6867 21.9727 17.2765C22.0006 16.8696 22 16.3656 22 15.7209H21.1628ZM18.357 20.3206C19.0581 20.3089 19.5693 20.2676 20.0186 20.0811L19.6983 19.3076C19.4108 19.427 19.0436 19.4717 18.3431 19.4839L18.357 20.3211V20.3206ZM20.9825 18.0238C20.7418 18.605 20.28 19.0668 19.6988 19.3076L20.0186 20.0811C20.408 19.9199 20.7618 19.6835 21.0598 19.3854C21.3579 19.0874 21.5943 18.7336 21.7556 18.3442L20.9825 18.0238ZM16.8372 10.8372C17.7587 10.8372 18.4207 10.8372 18.9369 10.8869C19.4471 10.9354 19.7714 11.0281 20.0303 11.1866L20.4674 10.4727C20.0549 10.2205 19.5872 10.1077 19.0162 10.053C18.4514 9.99944 17.7425 10 16.8372 10V10.8372ZM22 15.1628C22 14.2575 22 13.5492 21.9464 12.9838C21.8923 12.4128 21.7796 11.9446 21.5273 11.5327L20.8129 11.9697C20.9719 12.2287 21.0646 12.5529 21.1131 13.0636C21.1623 13.5794 21.1628 14.2413 21.1628 15.1628H22ZM20.0298 11.1866C20.3491 11.3821 20.6177 11.6505 20.8134 11.9697L21.5273 11.5327C21.2626 11.1006 20.8994 10.7374 20.4674 10.4727L20.0303 11.1872L20.0298 11.1866ZM15.1628 10C14.2575 10 13.5492 10 12.9838 10.053C12.4128 10.1077 11.9446 10.2205 11.5327 10.4727L11.9697 11.1872C12.2287 11.0281 12.5529 10.9354 13.0636 10.8869C13.5794 10.8378 14.2413 10.8372 15.1628 10.8372V10ZM10.8372 15.1628C10.8372 14.2413 10.8372 13.5794 10.8869 13.0631C10.9354 12.5529 11.0281 12.2287 11.1866 11.9697L10.4727 11.5332C10.2205 11.9451 10.1077 12.4128 10.053 12.9838C10 13.5498 10 14.2575 10 15.1628H10.8372ZM11.5327 10.4727C11.1006 10.7374 10.7374 11.1012 10.4727 11.5332L11.1872 11.9697C11.3826 11.6506 11.6507 11.3823 11.9697 11.1866L11.5327 10.4727ZM15.4508 20.5154C15.3381 20.3239 15.2387 20.1548 15.1416 20.022C15.0417 19.8763 14.9119 19.7536 14.7609 19.662L14.3401 20.3859C14.3663 20.4015 14.4026 20.4294 14.4651 20.5154C14.5327 20.608 14.6091 20.7364 14.7308 20.9418L15.4508 20.5154ZM13.643 20.3206C13.8886 20.325 14.0432 20.3284 14.1615 20.3412C14.272 20.3535 14.315 20.3714 14.3401 20.3859L14.7609 19.662C14.6047 19.5754 14.4317 19.5233 14.2536 19.509C14.0873 19.4906 13.8875 19.4878 13.6575 19.4839L13.643 20.3217V20.3206ZM17.2692 20.9418C17.3909 20.737 17.4674 20.608 17.5349 20.5154C17.5974 20.4294 17.6337 20.4015 17.6599 20.3859L17.2391 19.662C17.0772 19.7569 16.96 19.8824 16.8584 20.022C16.7619 20.1548 16.662 20.3234 16.5487 20.5154L17.2692 20.9418ZM18.3431 19.4839C18.1131 19.4878 17.9128 19.4906 17.7464 19.509C17.5729 19.5286 17.4026 19.5671 17.2391 19.662L17.6599 20.3859C17.685 20.3714 17.728 20.3535 17.8385 20.3412C17.9569 20.3284 18.112 20.3245 18.3576 20.3206L18.3431 19.4834V19.4839Z" fill="#7948EC"/>
<path d="M13.7673 15.4419H13.7724M15.9949 15.4419H15.9999M18.2274 15.4419H18.2325" stroke="#7948EC" stroke-linecap="round" stroke-linejoin="round"/>
</svg>
