<svg width="24" height="24" viewBox="0 0 24 24" fill="none" xmlns="http://www.w3.org/2000/svg">
<rect x="8" y="8" width="16" height="8" rx="4" fill="#D1C2F4"/>
<path d="M18 10.8571H16.8V12H18C18.4772 12.0005 18.9348 12.1812 19.2723 12.5026C19.6097 12.824 19.7995 13.2598 19.8 13.7143V16H21V13.7143C20.999 12.9568 20.6827 12.2306 20.1203 11.695C19.5579 11.1594 18.7954 10.8581 18 10.8571ZM16.8 5.14286C17.156 5.14286 17.504 5.2434 17.8 5.43177C18.096 5.62013 18.3267 5.88787 18.463 6.20111C18.5992 6.51436 18.6349 6.85904 18.5654 7.19158C18.496 7.52412 18.3245 7.82958 18.0728 8.06933C17.8211 8.30907 17.5003 8.47234 17.1512 8.53849C16.802 8.60464 16.4401 8.57069 16.1112 8.44094C15.7823 8.31119 15.5011 8.09146 15.3034 7.80955C15.1056 7.52764 15 7.1962 15 6.85714C15 6.40249 15.1896 5.96645 15.5272 5.64496C15.8648 5.32347 16.3226 5.14286 16.8 5.14286ZM16.8 4C16.2067 4 15.6266 4.16757 15.1333 4.48152C14.6399 4.79546 14.2554 5.24169 14.0284 5.76376C13.8013 6.28584 13.7419 6.86031 13.8576 7.41454C13.9734 7.96878 14.2591 8.47787 14.6787 8.87745C15.0982 9.27703 15.6328 9.54914 16.2147 9.65939C16.7967 9.76963 17.3999 9.71305 17.9481 9.4968C18.4962 9.28055 18.9648 8.91434 19.2944 8.44449C19.6241 7.97463 19.8 7.42223 19.8 6.85714C19.8 6.09938 19.4839 5.37266 18.9213 4.83684C18.3587 4.30102 17.5956 4 16.8 4ZM16.2 20H15V18.8571C14.9995 18.4026 14.8097 17.9669 14.4723 17.6455C14.1348 17.3241 13.6772 17.1433 13.2 17.1429H10.8C10.3228 17.1433 9.8652 17.3241 9.52773 17.6455C9.19027 17.9669 9.00048 18.4026 9 18.8571V20H7.8V18.8571C7.80095 18.0997 8.11733 17.3735 8.67973 16.8378C9.24214 16.3022 10.0046 16.0009 10.8 16H13.2C13.9954 16.0009 14.7579 16.3022 15.3203 16.8378C15.8827 17.3735 16.199 18.0997 16.2 18.8571V20ZM12 10.2857C12.356 10.2857 12.704 10.3863 13 10.5746C13.296 10.763 13.5267 11.0307 13.663 11.344C13.7992 11.6572 13.8349 12.0019 13.7654 12.3344C13.696 12.667 13.5245 12.9724 13.2728 13.2122C13.0211 13.4519 12.7003 13.6152 12.3512 13.6813C12.002 13.7475 11.6401 13.7135 11.3112 13.5838C10.9823 13.454 10.7011 13.2343 10.5034 12.9524C10.3056 12.6705 10.2 12.3391 10.2 12C10.2 11.5453 10.3896 11.1093 10.7272 10.7878C11.0648 10.4663 11.5226 10.2857 12 10.2857ZM12 9.14286C11.4067 9.14286 10.8266 9.31043 10.3333 9.62437C9.83994 9.93832 9.45542 10.3845 9.22836 10.9066C9.0013 11.4287 8.94189 12.0032 9.05764 12.5574C9.1734 13.1116 9.45912 13.6207 9.87868 14.0203C10.2982 14.4199 10.8328 14.692 11.4147 14.8022C11.9967 14.9125 12.5999 14.8559 13.1481 14.6397C13.6962 14.4234 14.1648 14.0572 14.4944 13.5873C14.8241 13.1175 15 12.5651 15 12C15 11.2422 14.6839 10.5155 14.1213 9.9797C13.5587 9.44388 12.7956 9.14286 12 9.14286ZM7.2 10.8571H6C5.20464 10.8581 4.44213 11.1594 3.87973 11.695C3.31733 12.2306 3.00095 12.9568 3 13.7143V16H4.2V13.7143C4.20048 13.2598 4.39027 12.824 4.72773 12.5026C5.0652 12.1812 5.52276 12.0005 6 12H7.2V10.8571ZM7.2 5.14286C7.55601 5.14286 7.90402 5.2434 8.20003 5.43177C8.49604 5.62013 8.72675 5.88787 8.86298 6.20111C8.99922 6.51436 9.03487 6.85904 8.96541 7.19158C8.89596 7.52412 8.72453 7.82958 8.47279 8.06933C8.22106 8.30907 7.90033 8.47234 7.55116 8.53849C7.202 8.60464 6.84008 8.57069 6.51117 8.44094C6.18226 8.31119 5.90114 8.09146 5.70335 7.80955C5.50557 7.52764 5.4 7.1962 5.4 6.85714C5.4 6.40249 5.58964 5.96645 5.92721 5.64496C6.26477 5.32347 6.72261 5.14286 7.2 5.14286ZM7.2 4C6.60666 4 6.02664 4.16757 5.53329 4.48152C5.03994 4.79546 4.65542 5.24169 4.42836 5.76376C4.2013 6.28584 4.14189 6.86031 4.25764 7.41454C4.3734 7.96878 4.65912 8.47787 5.07868 8.87745C5.49824 9.27703 6.03279 9.54914 6.61473 9.65939C7.19667 9.76963 7.79987 9.71305 8.34805 9.4968C8.89623 9.28055 9.36476 8.91434 9.69441 8.44449C10.0241 7.97463 10.2 7.42223 10.2 6.85714C10.2 6.09938 9.88393 5.37266 9.32132 4.83684C8.75871 4.30102 7.99565 4 7.2 4Z" fill="#7948EC"/>
</svg>
