<svg width="32" height="32" viewBox="0 0 32 32" fill="none" xmlns="http://www.w3.org/2000/svg">
<circle cx="16" cy="16" r="16" fill="#F9EDFC"/>
<path d="M20 15.2381H19.2V16H20C20.3182 16.0003 20.6232 16.1208 20.8482 16.335C21.0732 16.5493 21.1997 16.8398 21.2 17.1428V18.6666H22V17.1428C21.9994 16.6378 21.7884 16.1537 21.4135 15.7966C21.0386 15.4395 20.5302 15.2387 20 15.2381ZM19.2 11.4285C19.4373 11.4285 19.6693 11.4956 19.8667 11.6211C20.064 11.7467 20.2178 11.9252 20.3087 12.134C20.3995 12.3429 20.4232 12.5727 20.3769 12.7943C20.3306 13.016 20.2164 13.2197 20.0485 13.3795C19.8807 13.5393 19.6669 13.6482 19.4341 13.6923C19.2013 13.7364 18.9601 13.7138 18.7408 13.6273C18.5215 13.5407 18.3341 13.3943 18.2022 13.2063C18.0704 13.0184 18 12.7974 18 12.5714C18 12.2683 18.1264 11.9776 18.3515 11.7633C18.5765 11.5489 18.8817 11.4285 19.2 11.4285ZM19.2 10.6666C18.8044 10.6666 18.4178 10.7783 18.0889 10.9876C17.76 11.1969 17.5036 11.4944 17.3522 11.8425C17.2009 12.1905 17.1613 12.5735 17.2384 12.943C17.3156 13.3125 17.5061 13.6519 17.7858 13.9183C18.0655 14.1846 18.4219 14.3661 18.8098 14.4396C19.1978 14.513 19.5999 14.4753 19.9654 14.3312C20.3308 14.187 20.6432 13.9429 20.8629 13.6296C21.0827 13.3164 21.2 12.9481 21.2 12.5714C21.2 12.0662 20.9893 11.5817 20.6142 11.2245C20.2391 10.8673 19.7304 10.6666 19.2 10.6666ZM18.8 21.3333H18V20.5714C17.9997 20.2684 17.8732 19.9779 17.6482 19.7636C17.4232 19.5493 17.1182 19.4288 16.8 19.4285H15.2C14.8818 19.4288 14.5768 19.5493 14.3518 19.7636C14.1268 19.9779 14.0003 20.2684 14 20.5714V21.3333H13.2V20.5714C13.2006 20.0664 13.4116 19.5823 13.7865 19.2252C14.1614 18.8681 14.6698 18.6672 15.2 18.6666H16.8C17.3302 18.6672 17.8386 18.8681 18.2135 19.2252C18.5884 19.5823 18.7994 20.0664 18.8 20.5714V21.3333ZM16 14.8571C16.2373 14.8571 16.4693 14.9241 16.6667 15.0497C16.864 15.1753 17.0178 15.3538 17.1087 15.5626C17.1995 15.7714 17.2232 16.0012 17.1769 16.2229C17.1306 16.4446 17.0164 16.6482 16.8485 16.8081C16.6807 16.9679 16.4669 17.0768 16.2341 17.1209C16.0013 17.165 15.7601 17.1423 15.5408 17.0558C15.3215 16.9693 15.1341 16.8228 15.0022 16.6349C14.8704 16.447 14.8 16.226 14.8 16C14.8 15.6969 14.9264 15.4062 15.1515 15.1918C15.3765 14.9775 15.6817 14.8571 16 14.8571ZM16 14.0952C15.6044 14.0952 15.2178 14.2069 14.8889 14.4162C14.56 14.6255 14.3036 14.923 14.1522 15.271C14.0009 15.6191 13.9613 16.0021 14.0384 16.3716C14.1156 16.741 14.3061 17.0804 14.5858 17.3468C14.8655 17.6132 15.2219 17.7946 15.6098 17.8681C15.9978 17.9416 16.3999 17.9039 16.7654 17.7597C17.1308 17.6156 17.4432 17.3714 17.6629 17.0582C17.8827 16.745 18 16.3767 18 16C18 15.4948 17.7893 15.0103 17.4142 14.6531C17.0391 14.2959 16.5304 14.0952 16 14.0952ZM12.8 15.2381H12C11.4698 15.2387 10.9614 15.4395 10.5865 15.7966C10.2116 16.1537 10.0006 16.6378 10 17.1428V18.6666H10.8V17.1428C10.8003 16.8398 10.9268 16.5493 11.1518 16.335C11.3768 16.1208 11.6818 16.0003 12 16H12.8V15.2381ZM12.8 11.4285C13.0373 11.4285 13.2693 11.4956 13.4667 11.6211C13.664 11.7467 13.8178 11.9252 13.9087 12.134C13.9995 12.3429 14.0232 12.5727 13.9769 12.7943C13.9306 13.016 13.8164 13.2197 13.6485 13.3795C13.4807 13.5393 13.2669 13.6482 13.0341 13.6923C12.8013 13.7364 12.5601 13.7138 12.3408 13.6273C12.1215 13.5407 11.9341 13.3943 11.8022 13.2063C11.6704 13.0184 11.6 12.7974 11.6 12.5714C11.6 12.2683 11.7264 11.9776 11.9515 11.7633C12.1765 11.5489 12.4817 11.4285 12.8 11.4285ZM12.8 10.6666C12.4044 10.6666 12.0178 10.7783 11.6889 10.9876C11.36 11.1969 11.1036 11.4944 10.9522 11.8425C10.8009 12.1905 10.7613 12.5735 10.8384 12.943C10.9156 13.3125 11.1061 13.6519 11.3858 13.9183C11.6655 14.1846 12.0219 14.3661 12.4098 14.4396C12.7978 14.513 13.1999 14.4753 13.5654 14.3312C13.9308 14.187 14.2432 13.9429 14.4629 13.6296C14.6827 13.3164 14.8 12.9481 14.8 12.5714C14.8 12.0662 14.5893 11.5817 14.2142 11.2245C13.8391 10.8673 13.3304 10.6666 12.8 10.6666Z" fill="#B349C5"/>
</svg>
