<svg width="41" height="40" viewBox="0 0 41 40" fill="none" xmlns="http://www.w3.org/2000/svg">
<path d="M20.2105 0C9.09987 0 0.0935059 8.954 0.0935059 20C0.0935059 31.046 9.09987 40 20.2105 40C31.3211 40 40.3274 31.046 40.3274 20C40.3274 8.954 31.3211 0 20.2105 0Z" fill="url(#paint0_linear_102_3295)"/>
<path d="M22.9334 25.3009H28.1397L28.9574 20.0429H22.9334V17.1689C22.9334 14.9849 23.6516 13.0479 25.7065 13.0479H29.0087V8.45991C28.4283 8.38191 27.2012 8.21191 24.8827 8.21191C20.0406 8.21191 17.2021 10.7539 17.2021 16.5459V20.0439H12.2241V25.3019H17.2011V39.7539C18.1868 39.8999 19.1856 39.9999 20.2106 39.9999C21.1369 39.9999 22.0412 39.9159 22.9334 39.7959V25.3009Z" fill="white"/>
<defs>
<linearGradient id="paint0_linear_102_3295" x1="6.12155" y1="5.993" x2="36.743" y2="36.7936" gradientUnits="userSpaceOnUse">
<stop stop-color="#2AA4F4"/>
<stop offset="1" stop-color="#007AD9"/>
</linearGradient>
</defs>
</svg>
