<svg width="40" height="40" viewBox="0 0 40 40" fill="none" xmlns="http://www.w3.org/2000/svg">
<path d="M28.229 29.396C29.757 28.051 30.94 26.345 31.667 24.428C31.854 23.937 31.988 23.523 32.09 23.125L32.25 22.5H20.5V16.5H38.162C38.387 17.667 38.5 18.843 38.5 20C38.5 25.005 36.431 29.834 32.808 33.32L28.229 29.396Z" fill="#8BB7F0"/>
<path d="M37.744 17C37.914 18.002 38 19.008 38 20C38 24.719 36.109 29.277 32.784 32.641L28.982 29.382C30.367 28.049 31.447 26.418 32.135 24.605C32.327 24.099 32.467 23.668 32.575 23.25L32.897 22H31.606H21V17H37.744ZM38.57 16H20V23H31.607C31.497 23.428 31.355 23.842 31.201 24.25C30.429 26.284 29.128 28.058 27.457 29.391L32.824 33.991C36.611 30.518 39 25.544 39 20C39 18.627 38.847 17.291 38.57 16Z" fill="#4E7AB5"/>
<path d="M32.8279 22C32.3269 25.231 30.6529 28.075 28.2339 30.058L32.0589 33.336C35.2339 30.463 37.3879 26.484 37.8869 22H32.8279Z" fill="#8BB7F0"/>
<path d="M19.9999 38.5C13.0969 38.5 6.87188 34.727 3.65088 28.623L8.60788 25.124C10.6249 29.626 15.0309 32.5 19.9999 32.5C22.7129 32.5 25.2769 31.649 27.4389 30.035L32.0629 33.998C28.6949 36.906 24.4339 38.5 19.9999 38.5Z" fill="#BAE0BD"/>
<path d="M8.41106 25.875C10.6121 30.242 15.0351 33 20.0001 33C22.6881 33 25.2341 32.197 27.4131 30.671L31.2891 33.993C28.0861 36.585 24.1201 38 20.0001 38C13.4301 38 7.49106 34.487 4.30306 28.775L8.41106 25.875ZM8.82806 24.357L3.00806 28.465C6.12306 34.704 12.5521 39 20.0001 39C24.9491 39 29.4421 37.092 32.8231 33.991L27.4561 29.391C25.4111 31.023 22.8221 32 20.0001 32C14.9111 32 10.5731 28.827 8.82806 24.357Z" fill="#5E9C76"/>
<path d="M28.2341 30.058C25.9921 31.896 23.1251 33 20.0001 33C14.5931 33 9.95912 29.697 8.00012 25L3.87012 27.95C6.80712 33.899 12.9171 38 20.0001 38C24.6451 38 28.8661 36.225 32.0591 33.336L28.2341 30.058Z" fill="#BAE0BD"/>
<path d="M3.89111 10.907C7.17711 5.094 13.3101 1.5 20.0001 1.5C24.4931 1.5 28.8001 3.132 32.1861 6.107L27.9741 10.319C25.7571 8.498 22.9441 7.5 20.0001 7.5C15.1601 7.5 10.8041 10.263 8.72911 14.593L3.89111 10.907Z" fill="#F78F8F"/>
<path d="M20.0001 2C24.1931 2 28.2201 3.462 31.4491 6.136L27.9341 9.651C25.6881 7.935 22.9051 7 20.0001 7C15.1721 7 10.8081 9.643 8.55512 13.832L4.54512 10.777C7.79112 5.342 13.6371 2 20.0001 2ZM20.0001 1C12.7461 1 6.44612 5.068 3.24512 11.044L8.92712 15.373C10.7381 11.043 15.0131 8 20.0001 8C23.0591 8 25.8811 9.116 28.0001 11L32.9111 6.089C29.5201 2.94 24.9921 1 20.0001 1Z" fill="#C74343"/>
<path d="M19.9999 7V2C13.0699 2 7.06391 5.922 4.05591 11.662L8.11191 14.752C10.1299 10.189 14.6889 7 19.9999 7Z" fill="#F78F8F"/>
<path d="M3.235 27.789C2.083 25.324 1.5 22.707 1.5 20C1.5 17.162 2.161 14.34 3.417 11.803L8.322 15.54C7.776 16.965 7.5 18.463 7.5 20C7.5 21.435 7.749 22.851 8.24 24.214L3.235 27.789Z" fill="#FFEEA3"/>
<path d="M3.604 12.574L7.725 15.714C7.244 17.09 7 18.528 7 20C7 21.367 7.217 22.717 7.646 24.024L3.442 27.027C2.484 24.791 2 22.432 2 20C2 17.441 2.552 14.897 3.604 12.574ZM3.245 11.044C1.815 13.713 1 16.76 1 20C1 23.075 1.747 25.97 3.044 28.54L8.843 24.398C8.305 23.035 8 21.554 8 20C8 18.36 8.331 16.797 8.927 15.373L3.245 11.044Z" fill="#BA9B48"/>
<path d="M7 20C7 18.131 7.402 16.358 8.112 14.752L4.056 11.662C2.749 14.156 2 16.989 2 20C2 22.858 2.684 25.55 3.869 27.951L8 25C7.357 23.461 7 21.772 7 20Z" fill="#FFEEA3"/>
</svg>
