<svg width="32" height="32" viewBox="0 0 32 32" fill="none" xmlns="http://www.w3.org/2000/svg">
<circle cx="16" cy="16" r="16" fill="#F2ECFF"/>
<mask id="path-2-inside-1_228_3363" fill="white">
<path d="M15.3333 14H16.6666V12.6667H15.3333M15.9999 21.3334C13.0599 21.3334 10.6666 18.94 10.6666 16C10.6666 13.06 13.0599 10.6667 15.9999 10.6667C18.9399 10.6667 21.3333 13.06 21.3333 16C21.3333 18.94 18.9399 21.3334 15.9999 21.3334ZM15.9999 9.33337C15.1244 9.33337 14.2575 9.50581 13.4487 9.84084C12.6399 10.1759 11.9049 10.6669 11.2859 11.286C10.0356 12.5362 9.33325 14.2319 9.33325 16C9.33325 17.7682 10.0356 19.4638 11.2859 20.7141C11.9049 21.3331 12.6399 21.8242 13.4487 22.1592C14.2575 22.4943 15.1244 22.6667 15.9999 22.6667C17.768 22.6667 19.4637 21.9643 20.714 20.7141C21.9642 19.4638 22.6666 17.7682 22.6666 16C22.6666 15.1246 22.4941 14.2577 22.1591 13.4488C21.8241 12.64 21.333 11.9051 20.714 11.286C20.0949 10.6669 19.36 10.1759 18.5511 9.84084C17.7423 9.50581 16.8754 9.33337 15.9999 9.33337ZM15.3333 19.3334H16.6666V15.3334H15.3333V19.3334Z"/>
</mask>
<path d="M15.3333 14H16.6666V12.6667H15.3333M15.9999 21.3334C13.0599 21.3334 10.6666 18.94 10.6666 16C10.6666 13.06 13.0599 10.6667 15.9999 10.6667C18.9399 10.6667 21.3333 13.06 21.3333 16C21.3333 18.94 18.9399 21.3334 15.9999 21.3334ZM15.9999 9.33337C15.1244 9.33337 14.2575 9.50581 13.4487 9.84084C12.6399 10.1759 11.9049 10.6669 11.2859 11.286C10.0356 12.5362 9.33325 14.2319 9.33325 16C9.33325 17.7682 10.0356 19.4638 11.2859 20.7141C11.9049 21.3331 12.6399 21.8242 13.4487 22.1592C14.2575 22.4943 15.1244 22.6667 15.9999 22.6667C17.768 22.6667 19.4637 21.9643 20.714 20.7141C21.9642 19.4638 22.6666 17.7682 22.6666 16C22.6666 15.1246 22.4941 14.2577 22.1591 13.4488C21.8241 12.64 21.333 11.9051 20.714 11.286C20.0949 10.6669 19.36 10.1759 18.5511 9.84084C17.7423 9.50581 16.8754 9.33337 15.9999 9.33337ZM15.3333 19.3334H16.6666V15.3334H15.3333V19.3334Z" fill="#333333"/>
<path d="M16.6666 14V15H17.6666V14H16.6666ZM16.6666 12.6667H17.6666V11.6667H16.6666V12.6667ZM9.33325 16H8.33325H9.33325ZM15.9999 22.6667V23.6667V22.6667ZM15.3333 19.3334H14.3333V20.3334H15.3333V19.3334ZM16.6666 19.3334V20.3334H17.6666V19.3334H16.6666ZM16.6666 15.3334H17.6666V14.3334H16.6666V15.3334ZM15.3333 15.3334V14.3334H14.3333V15.3334H15.3333ZM15.3333 15H16.6666V13H15.3333V15ZM17.6666 14V12.6667H15.6666V14H17.6666ZM16.6666 11.6667H15.3333V13.6667H16.6666V11.6667ZM15.9999 20.3334C13.6122 20.3334 11.6666 18.3878 11.6666 16H9.66659C9.66659 19.4923 12.5076 22.3334 15.9999 22.3334V20.3334ZM11.6666 16C11.6666 13.6123 13.6122 11.6667 15.9999 11.6667V9.66671C12.5076 9.66671 9.66659 12.5078 9.66659 16H11.6666ZM15.9999 11.6667C18.3876 11.6667 20.3333 13.6123 20.3333 16H22.3333C22.3333 12.5078 19.4922 9.66671 15.9999 9.66671V11.6667ZM20.3333 16C20.3333 18.3878 18.3876 20.3334 15.9999 20.3334V22.3334C19.4922 22.3334 22.3333 19.4923 22.3333 16H20.3333ZM15.9999 8.33337C14.9931 8.33337 13.9962 8.53168 13.066 8.91696L13.8314 10.7647C14.5189 10.4799 15.2558 10.3334 15.9999 10.3334V8.33337ZM13.066 8.91696C12.1358 9.30225 11.2907 9.86697 10.5788 10.5789L11.993 11.9931C12.5192 11.4669 13.1439 11.0495 13.8314 10.7647L13.066 8.91696ZM10.5788 10.5789C9.14099 12.0167 8.33325 13.9667 8.33325 16H10.3333C10.3333 14.4971 10.9303 13.0558 11.993 11.9931L10.5788 10.5789ZM8.33325 16C8.33325 18.0334 9.14099 19.9834 10.5788 21.4212L11.993 20.007C10.9303 18.9443 10.3333 17.5029 10.3333 16H8.33325ZM10.5788 21.4212C11.2907 22.1331 12.1358 22.6978 13.066 23.0831L13.8314 21.2354C13.1439 20.9506 12.5192 20.5332 11.993 20.007L10.5788 21.4212ZM13.066 23.0831C13.9962 23.4684 14.9931 23.6667 15.9999 23.6667V21.6667C15.2558 21.6667 14.5189 21.5201 13.8314 21.2354L13.066 23.0831ZM15.9999 23.6667C18.0332 23.6667 19.9833 22.859 21.4211 21.4212L20.0069 20.007C18.9442 21.0697 17.5028 21.6667 15.9999 21.6667V23.6667ZM21.4211 21.4212C22.8588 19.9834 23.6666 18.0334 23.6666 16H21.6666C21.6666 17.5029 21.0696 18.9443 20.0069 20.007L21.4211 21.4212ZM23.6666 16C23.6666 14.9932 23.4683 13.9963 23.083 13.0661L21.2352 13.8315C21.52 14.519 21.6666 15.2559 21.6666 16H23.6666ZM23.083 13.0661C22.6977 12.136 22.133 11.2908 21.4211 10.5789L20.0069 11.9931C20.5331 12.5193 20.9505 13.144 21.2352 13.8315L23.083 13.0661ZM21.4211 10.5789C20.7092 9.86697 19.864 9.30225 18.9338 8.91696L18.1685 10.7647C18.856 11.0495 19.4807 11.4669 20.0069 11.9931L21.4211 10.5789ZM18.9338 8.91696C18.0037 8.53168 17.0067 8.33337 15.9999 8.33337V10.3334C16.7441 10.3334 17.4809 10.4799 18.1685 10.7647L18.9338 8.91696ZM15.3333 20.3334H16.6666V18.3334H15.3333V20.3334ZM17.6666 19.3334V15.3334H15.6666V19.3334H17.6666ZM16.6666 14.3334H15.3333V16.3334H16.6666V14.3334ZM14.3333 15.3334V19.3334H16.3333V15.3334H14.3333Z" fill="#7948EC" mask="url(#path-2-inside-1_228_3363)"/>
</svg>
