<svg width="48" height="48" viewBox="0 0 48 48" fill="none" xmlns="http://www.w3.org/2000/svg">
<circle cx="24" cy="24" r="24" fill="#F9EDFC"/>
<path d="M28.5 19C28.5 18.8674 28.5527 18.7402 28.6464 18.6464C28.7402 18.5527 28.8674 18.5 29 18.5C29.1326 18.5 29.2598 18.5527 29.3536 18.6464C29.4473 18.7402 29.5 18.8674 29.5 19C29.5 19.1326 29.4473 19.2598 29.3536 19.3536C29.2598 19.4473 29.1326 19.5 29 19.5C28.8674 19.5 28.7402 19.4473 28.6464 19.3536C28.5527 19.2598 28.5 19.1326 28.5 19Z" fill="#B349C5" stroke="#B349C5"/>
<path fill-rule="evenodd" clip-rule="evenodd" d="M24 19.25C22.7402 19.25 21.532 19.7504 20.6412 20.6412C19.7504 21.532 19.25 22.7402 19.25 24C19.25 25.2598 19.7504 26.468 20.6412 27.3588C21.532 28.2496 22.7402 28.75 24 28.75C25.2598 28.75 26.468 28.2496 27.3588 27.3588C28.2496 26.468 28.75 25.2598 28.75 24C28.75 22.7402 28.2496 21.532 27.3588 20.6412C26.468 19.7504 25.2598 19.25 24 19.25ZM20.75 24C20.75 23.138 21.0924 22.3114 21.7019 21.7019C22.3114 21.0924 23.138 20.75 24 20.75C24.862 20.75 25.6886 21.0924 26.2981 21.7019C26.9076 22.3114 27.25 23.138 27.25 24C27.25 24.862 26.9076 25.6886 26.2981 26.2981C25.6886 26.9076 24.862 27.25 24 27.25C23.138 27.25 22.3114 26.9076 21.7019 26.2981C21.0924 25.6886 20.75 24.862 20.75 24Z" fill="#B349C5"/>
<path fill-rule="evenodd" clip-rule="evenodd" d="M29.2581 14.833C25.7634 14.4456 22.2367 14.4456 18.7421 14.833C16.7301 15.058 15.1051 16.643 14.8691 18.665C14.4545 22.2096 14.4545 25.7904 14.8691 29.335C15.1051 31.357 16.7291 32.942 18.7421 33.167C22.2367 33.554 25.7634 33.554 29.2581 33.167C31.2701 32.942 32.8951 31.357 33.1311 29.335C33.5457 25.7905 33.5457 22.2096 33.1311 18.665C32.8951 16.643 31.2711 15.058 29.2581 14.833ZM18.9081 16.323C22.2924 15.9479 25.7078 15.9479 29.0921 16.323C30.4221 16.473 31.4871 17.522 31.6421 18.84C32.043 22.2684 32.043 25.7317 31.6421 29.16C31.5619 29.8051 31.2666 30.4043 30.8039 30.8608C30.3412 31.3173 29.7381 31.6045 29.0921 31.676C25.7078 32.0512 22.2924 32.0512 18.9081 31.676C18.262 31.6045 17.6589 31.3173 17.1962 30.8608C16.7335 30.4043 16.4382 29.8051 16.3581 29.16C15.9571 25.7317 15.9571 22.2684 16.3581 18.84C16.4382 18.195 16.7335 17.5958 17.1962 17.1393C17.6589 16.6828 18.262 16.3945 18.9081 16.323Z" fill="#B349C5"/>
</svg>
