<svg width="24" height="24" viewBox="0 0 24 24" fill="none" xmlns="http://www.w3.org/2000/svg">
<path d="M15.6998 18.8V19.5H15.4998V18.9C15.4998 18.2535 15.2368 17.7299 14.8534 17.3464C14.4488 16.9418 13.8163 16.7 13.1998 16.7H10.7998C10.1483 16.7 9.64368 16.9671 9.1998 17.3L9.17138 17.3213L9.14625 17.3464C8.76278 17.7299 8.4998 18.2535 8.4998 18.9V19.5H8.2998V18.9C8.2998 18.2335 8.54486 17.68 9.0199 17.2841L9.05482 17.255L9.08391 17.2201C9.46844 16.7587 10.1129 16.5 10.7998 16.5H13.1998C13.8897 16.5 14.5548 16.7621 14.9463 17.1536L14.9623 17.1696L14.9797 17.1841C15.4476 17.5741 15.6998 18.2231 15.6998 18.8Z" stroke="white"/>
<path d="M14.1002 10.6C13.6002 10 12.8002 9.70001 12.0002 9.70001C11.4002 9.70001 10.8002 9.90001 10.3002 10.2C9.80023 10.5 9.40023 11 9.20023 11.5C9.00023 12 8.90023 12.6 9.10023 13.1C9.20023 13.7 9.50023 14.2 9.90023 14.6C10.3002 15 10.9002 15.3 11.4002 15.4C12.0002 15.5 12.6002 15.5 13.1002 15.2C13.6002 15 14.1002 14.6 14.4002 14.1C14.7002 13.6 14.9002 13.1 14.9002 12.5C15.0002 11.8 14.7002 11.1 14.1002 10.6ZM13.8002 12.9C13.7002 13.2 13.6002 13.5 13.3002 13.8C13.0002 14 12.7002 14.2 12.4002 14.3C12.1002 14.4 11.7002 14.3 11.4002 14.2C11.1002 14.1 10.8002 13.9 10.6002 13.6C10.4002 13.3 10.3002 13 10.3002 12.6C10.3002 12.1 10.5002 11.7 10.8002 11.4C11.1002 11.1 11.6002 10.9 12.1002 10.9C12.5002 10.9 12.8002 11 13.1002 11.2C13.4002 11.4 13.6002 11.7 13.8002 12C13.8002 12.2 13.8002 12.6 13.8002 12.9Z" fill="white"/>
<path d="M7.2 10.9H6C5.2 10.9 4.4 11.2 3.9 11.7C3.3 12.2 3 13 3 13.7V16H4.2V13.7C4.2 13.2 4.4 12.8 4.7 12.5C5.1 12.2 5.5 12 6 12H7.2V10.9Z" fill="white"/>
<path d="M9.29993 4.8C8.79993 4.3 7.99993 4 7.19993 4C6.59993 4 5.99993 4.2 5.49993 4.5C4.99993 4.8 4.69993 5.2 4.39993 5.8C4.19993 6.3 4.09993 6.9 4.29993 7.4C4.39994 8 4.69993 8.5 5.09993 8.9C5.49993 9.3 6.09993 9.6 6.59993 9.7C7.19993 9.8 7.79993 9.8 8.29993 9.5C8.79993 9.3 9.29993 8.9 9.59994 8.4C9.89994 7.9 10.0999 7.4 10.0999 6.8C10.1999 6.1 9.89993 5.4 9.29993 4.8ZM8.99993 7.2C8.89993 7.5 8.69993 7.8 8.49993 8.1C8.19993 8.3 7.89993 8.5 7.59993 8.5C7.29993 8.6 6.89993 8.5 6.59993 8.4C6.29993 8.3 5.89993 8.1 5.69993 7.8C5.49993 7.5 5.39993 7.2 5.39993 6.8C5.39993 6.3 5.59993 5.9 5.89993 5.6C6.19993 5.3 6.69993 5.1 7.19993 5.1C7.59993 5.1 7.89993 5.2 8.19993 5.4C8.49993 5.6 8.69993 5.9 8.89993 6.2C9.09993 6.5 8.99993 6.9 8.99993 7.2Z" fill="white"/>
<path d="M18.2 4H17V11.8H18.2V4Z" fill="white"/>
<path d="M21.4717 8.50499V7.30499L13.6717 7.30499V8.50499L21.4717 8.50499Z" fill="white"/>
</svg>
