<svg width="24" height="24" viewBox="0 0 24 24" fill="none" xmlns="http://www.w3.org/2000/svg">
<path d="M15.1217 5.20545C16.3222 3.99991 18.0786 3.9748 19.0506 4.95095C20.025 5.92878 19.9991 7.69691 18.7969 8.90245L16.7684 10.9393C16.6542 11.0579 16.5911 11.2166 16.5928 11.3812C16.5944 11.5459 16.6607 11.7032 16.7773 11.8195C16.8939 11.9358 17.0514 12.0016 17.2161 12.0028C17.3807 12.004 17.5392 11.9404 17.6575 11.8259L19.6868 9.78902C21.2867 8.18247 21.4876 5.61819 19.9405 4.06438C18.3917 2.50973 15.8324 2.71233 14.2309 4.31888L10.1739 8.39344C8.57407 9.99999 8.37315 12.5643 9.92026 14.1172C9.97804 14.1773 10.0472 14.2253 10.1237 14.2584C10.2003 14.2915 10.2826 14.309 10.366 14.3099C10.4493 14.3108 10.532 14.2951 10.6093 14.2637C10.6865 14.2323 10.7567 14.1859 10.8158 14.1271C10.8749 14.0683 10.9217 13.9983 10.9534 13.9212C10.9852 13.8441 11.0012 13.7615 11.0007 13.6781C11.0002 13.5948 10.9831 13.5123 10.9504 13.4357C10.9177 13.359 10.87 13.2896 10.8102 13.2315C9.8357 12.2537 9.86249 10.4856 11.0638 9.28002L15.1217 5.20545Z" fill="#ffffff"/>
<path d="M14.0805 9.88194C13.9628 9.76393 13.8031 9.6975 13.6364 9.69727C13.4697 9.69703 13.3098 9.76301 13.1918 9.88069C13.0738 9.99837 13.0074 10.1581 13.0071 10.3248C13.0069 10.4914 13.0729 10.6513 13.1906 10.7694C14.165 11.7472 14.1391 13.5145 12.9369 14.7209L8.87907 18.7946C7.67772 20.0001 5.92131 20.0252 4.94934 19.0491C3.97486 18.0712 4.00165 16.3031 5.20301 15.0976L7.23234 13.0607C7.29055 13.0023 7.33668 12.933 7.3681 12.8567C7.39952 12.7804 7.41562 12.6987 7.41546 12.6162C7.41531 12.5338 7.39891 12.4521 7.3672 12.376C7.33549 12.2998 7.28909 12.2307 7.23066 12.1725C7.17223 12.1143 7.1029 12.0681 7.02664 12.0367C6.95038 12.0053 6.86867 11.9892 6.78619 11.9893C6.70371 11.9895 6.62206 12.0059 6.54592 12.0376C6.46978 12.0693 6.40062 12.1157 6.34241 12.1741L4.31308 14.211C2.71323 15.8184 2.51231 18.3818 4.05942 19.9357C5.6082 21.4911 8.16747 21.2877 9.76899 19.6811L13.8268 15.6066C15.4267 14.0009 15.6276 11.4349 14.0805 9.88194Z" fill="#ffffff"/>
</svg>
