<svg width="24" height="24" viewBox="0 0 24 24" fill="none" xmlns="http://www.w3.org/2000/svg">
<path d="M10.5282 8.74623L10.5282 8.74626C9.08524 10.1953 8.95714 12.442 10.2745 13.7644L10.2807 13.7706L10.2807 13.7707C10.2924 13.7829 10.3065 13.7927 10.3221 13.7994C10.3377 13.8062 10.3545 13.8097 10.3714 13.8099C10.3884 13.8101 10.4053 13.8069 10.421 13.8005C10.4367 13.7941 10.451 13.7847 10.4631 13.7727C10.4751 13.7607 10.4846 13.7465 10.4911 13.7308L10.9484 13.9191L10.4911 13.7308C10.4976 13.7151 10.5008 13.6982 10.5007 13.6812C10.5006 13.6643 10.4971 13.6475 10.4905 13.6319C10.4838 13.6162 10.4741 13.6021 10.4619 13.5903L10.456 13.5845L10.456 13.5845C9.25538 12.3797 9.34722 10.2944 10.7096 8.92719L10.5282 8.74623ZM10.5282 8.74623L14.585 4.67188M10.5282 8.74623L14.585 4.67188M14.585 4.67188L14.5852 4.67167C16.0292 3.22335 18.2687 3.09481 19.5862 4.41717L14.585 4.67188ZM14.7674 4.85264L10.7097 8.92708L19.5863 4.41726C20.9037 5.74048 20.7754 7.9872 19.3326 9.43612C19.3326 9.43615 19.3326 9.43618 19.3325 9.43621L17.3076 11.4687C17.2837 11.4908 17.2523 11.503 17.2197 11.5028C17.1862 11.5025 17.1541 11.4891 17.1303 11.4655C17.1066 11.4418 17.0931 11.4097 17.0927 11.3762C17.0924 11.3435 17.1046 11.312 17.1267 11.2881L19.1509 9.25551C20.5145 7.8881 20.6052 5.80266 19.4047 4.59801C18.2053 3.39364 16.1297 3.48461 14.7674 4.85263C14.7674 4.85263 14.7674 4.85264 14.7674 4.85264Z" stroke="white"/>
<path d="M14.0805 9.88194C13.9628 9.76393 13.8031 9.6975 13.6364 9.69727C13.4697 9.69703 13.3098 9.76301 13.1918 9.88069C13.0738 9.99837 13.0074 10.1581 13.0071 10.3248C13.0069 10.4914 13.0729 10.6513 13.1906 10.7694C14.165 11.7472 14.1391 13.5145 12.9369 14.7209L8.87907 18.7946C7.67772 20.0001 5.92131 20.0252 4.94934 19.0491C3.97486 18.0712 4.00165 16.3031 5.20301 15.0976L7.23234 13.0607C7.29055 13.0023 7.33668 12.933 7.3681 12.8567C7.39952 12.7804 7.41562 12.6987 7.41546 12.6162C7.41531 12.5338 7.39891 12.4521 7.3672 12.376C7.33549 12.2998 7.28909 12.2307 7.23066 12.1725C7.17223 12.1143 7.1029 12.0681 7.02664 12.0367C6.95038 12.0053 6.86867 11.9892 6.78619 11.9893C6.70371 11.9895 6.62206 12.0059 6.54592 12.0376C6.46978 12.0693 6.40062 12.1157 6.34241 12.1741L4.31308 14.211C2.71323 15.8184 2.51231 18.3818 4.05942 19.9357C5.6082 21.4911 8.16747 21.2877 9.76899 19.6811L13.8268 15.6066C15.4267 14.0009 15.6276 11.4349 14.0805 9.88194Z" fill="white"/>
</svg>
