<svg width="24" height="24" viewBox="0 0 24 24" fill="none" xmlns="http://www.w3.org/2000/svg">
<circle cx="12" cy="12" r="12" fill="#E6E6FF"/>
<mask id="path-2-inside-1_1_1148" fill="white">
<path fill-rule="evenodd" clip-rule="evenodd" d="M14.124 8.016C13.5639 7.45569 12.8073 7.13603 12.015 7.125H11.985C11.1928 7.13587 10.436 7.45542 9.87574 8.0157C9.31547 8.57597 8.99591 9.33273 8.98504 10.125C8.97529 10.6875 9.13354 11.2403 9.43954 11.7128L11.8005 16.5H12.2003L14.5605 11.7128C14.8673 11.2403 15.0255 10.6875 15.015 10.125C15.004 9.33279 14.6844 8.57615 14.124 8.016ZM11.9438 7.875L12.0053 7.8825L12.0608 7.875C12.65 7.90066 13.2069 8.15105 13.6172 8.5747C14.0274 8.99834 14.2598 9.56306 14.2665 10.1528C14.2723 10.5713 14.1501 10.9816 13.9163 11.3288L13.9013 11.3542L13.8885 11.3805L12 15.2093L10.1123 11.3842L10.0995 11.355L10.0845 11.3295C9.85075 10.9823 9.72856 10.572 9.73429 10.1535C9.74069 9.56312 9.97334 8.9977 10.3843 8.57377C10.7952 8.14985 11.3532 7.89974 11.943 7.875H11.9438ZM12.4028 9.50175C12.3209 9.44699 12.229 9.40889 12.1324 9.38964C12.0358 9.37039 11.9363 9.37035 11.8397 9.38954C11.7431 9.40873 11.6512 9.44676 11.5692 9.50147C11.4873 9.55617 11.4169 9.62648 11.3622 9.70837C11.3074 9.79027 11.2693 9.88215 11.2501 9.97877C11.2308 10.0754 11.2308 10.1748 11.25 10.2715C11.2691 10.3681 11.3072 10.46 11.3619 10.542C11.4166 10.6239 11.4869 10.6942 11.5688 10.749C11.7342 10.8596 11.9367 10.9 12.1319 10.8612C12.3271 10.8225 12.4988 10.7078 12.6094 10.5424C12.72 10.377 12.7604 10.1744 12.7216 9.97927C12.6829 9.78411 12.5682 9.61235 12.4028 9.50175ZM11.1525 8.87775C11.3162 8.76272 11.5012 8.68158 11.6967 8.6391C11.8921 8.59663 12.0941 8.59368 12.2907 8.63043C12.4874 8.66718 12.6747 8.74288 12.8416 8.85309C13.0085 8.9633 13.1517 9.10578 13.2628 9.27215C13.3738 9.43853 13.4505 9.62543 13.4882 9.82187C13.526 10.0183 13.524 10.2203 13.4825 10.416C13.4411 10.6117 13.3609 10.7971 13.2467 10.9613C13.1324 11.1255 12.9866 11.2652 12.8175 11.3723C12.4867 11.5817 12.0871 11.6535 11.7041 11.5723C11.321 11.4911 10.9849 11.2633 10.7675 10.9376C10.5502 10.612 10.4688 10.2142 10.5407 9.82932C10.6126 9.44443 10.8322 9.10292 11.1525 8.87775Z"/>
</mask>
<path fill-rule="evenodd" clip-rule="evenodd" d="M14.124 8.016C13.5639 7.45569 12.8073 7.13603 12.015 7.125H11.985C11.1928 7.13587 10.436 7.45542 9.87574 8.0157C9.31547 8.57597 8.99591 9.33273 8.98504 10.125C8.97529 10.6875 9.13354 11.2403 9.43954 11.7128L11.8005 16.5H12.2003L14.5605 11.7128C14.8673 11.2403 15.0255 10.6875 15.015 10.125C15.004 9.33279 14.6844 8.57615 14.124 8.016ZM11.9438 7.875L12.0053 7.8825L12.0608 7.875C12.65 7.90066 13.2069 8.15105 13.6172 8.5747C14.0274 8.99834 14.2598 9.56306 14.2665 10.1528C14.2723 10.5713 14.1501 10.9816 13.9163 11.3288L13.9013 11.3542L13.8885 11.3805L12 15.2093L10.1123 11.3842L10.0995 11.355L10.0845 11.3295C9.85075 10.9823 9.72856 10.572 9.73429 10.1535C9.74069 9.56312 9.97334 8.9977 10.3843 8.57377C10.7952 8.14985 11.3532 7.89974 11.943 7.875H11.9438ZM12.4028 9.50175C12.3209 9.44699 12.229 9.40889 12.1324 9.38964C12.0358 9.37039 11.9363 9.37035 11.8397 9.38954C11.7431 9.40873 11.6512 9.44676 11.5692 9.50147C11.4873 9.55617 11.4169 9.62648 11.3622 9.70837C11.3074 9.79027 11.2693 9.88215 11.2501 9.97877C11.2308 10.0754 11.2308 10.1748 11.25 10.2715C11.2691 10.3681 11.3072 10.46 11.3619 10.542C11.4166 10.6239 11.4869 10.6942 11.5688 10.749C11.7342 10.8596 11.9367 10.9 12.1319 10.8612C12.3271 10.8225 12.4988 10.7078 12.6094 10.5424C12.72 10.377 12.7604 10.1744 12.7216 9.97927C12.6829 9.78411 12.5682 9.61235 12.4028 9.50175ZM11.1525 8.87775C11.3162 8.76272 11.5012 8.68158 11.6967 8.6391C11.8921 8.59663 12.0941 8.59368 12.2907 8.63043C12.4874 8.66718 12.6747 8.74288 12.8416 8.85309C13.0085 8.9633 13.1517 9.10578 13.2628 9.27215C13.3738 9.43853 13.4505 9.62543 13.4882 9.82187C13.526 10.0183 13.524 10.2203 13.4825 10.416C13.4411 10.6117 13.3609 10.7971 13.2467 10.9613C13.1324 11.1255 12.9866 11.2652 12.8175 11.3723C12.4867 11.5817 12.0871 11.6535 11.7041 11.5723C11.321 11.4911 10.9849 11.2633 10.7675 10.9376C10.5502 10.612 10.4688 10.2142 10.5407 9.82932C10.6126 9.44443 10.8322 9.10292 11.1525 8.87775Z" fill="#333333"/>
<path d="M14.124 8.016L13.4168 8.723L13.417 8.72321L14.124 8.016ZM12.015 7.125L12.029 6.125H12.015V7.125ZM11.985 7.125L11.985 6.12491L11.9713 6.12509L11.985 7.125ZM8.98504 10.125L9.9849 10.1423L9.98495 10.1387L8.98504 10.125ZM9.43954 11.7128L10.3364 11.2704L10.3106 11.2181L10.2789 11.1692L9.43954 11.7128ZM11.8005 16.5L10.9037 16.9423L11.1787 17.5H11.8005V16.5ZM12.2003 16.5V17.5H12.8222L13.0972 16.9422L12.2003 16.5ZM14.5605 11.7128L13.7218 11.1682L13.6897 11.2177L13.6636 11.2705L14.5605 11.7128ZM15.015 10.125L14.0151 10.1389L14.0152 10.1437L15.015 10.125ZM11.9438 7.875L12.0648 6.88235L12.0045 6.875H11.9438V7.875ZM12.0053 7.8825L11.8842 8.87515L12.0118 8.89071L12.1392 8.87349L12.0053 7.8825ZM12.0608 7.875L12.1043 6.87595L12.0152 6.87207L11.9269 6.88401L12.0608 7.875ZM14.2665 10.1528L13.2666 10.1642L13.2666 10.1665L14.2665 10.1528ZM13.9163 11.3288L13.0868 10.7702L13.0698 10.7955L13.0544 10.8217L13.9163 11.3288ZM13.9013 11.3542L13.0394 10.8472L13.0192 10.8815L13.0018 10.9173L13.9013 11.3542ZM13.8885 11.3805L14.7854 11.8229L14.788 11.8174L13.8885 11.3805ZM12 15.2093L11.1033 15.6518L12.0003 17.4693L12.8969 15.6516L12 15.2093ZM10.1123 11.3842L9.1956 11.7838L9.20507 11.8056L9.21556 11.8268L10.1123 11.3842ZM10.0995 11.355L11.0162 10.9554L10.9921 10.9L10.9615 10.848L10.0995 11.355ZM10.0845 11.3295L10.9465 10.8225L10.931 10.7962L10.914 10.7709L10.0845 11.3295ZM9.73429 10.1535L10.7342 10.1672L10.7342 10.1643L9.73429 10.1535ZM11.943 7.875V6.875H11.9221L11.9011 6.87588L11.943 7.875ZM12.4028 9.50175L11.8469 10.333L12.4028 9.50175ZM11.5688 10.749L11.0129 11.5803L11.0129 11.5803L11.5688 10.749ZM11.1525 8.87775L11.7276 9.69585L11.1525 8.87775ZM12.8175 11.3723L13.3525 12.2172L13.3525 12.2172L12.8175 11.3723ZM14.8313 7.309C14.087 6.5645 13.0816 6.13975 12.029 6.1251L12.0011 8.1249C12.5329 8.1323 13.0408 8.34688 13.4168 8.723L14.8313 7.309ZM12.015 6.125H11.985V8.125H12.015V6.125ZM11.9713 6.12509C10.9186 6.13953 9.91308 6.56414 9.16863 7.30859L10.5828 8.7228C10.9589 8.34671 11.4669 8.1322 11.9988 8.12491L11.9713 6.12509ZM9.16863 7.30859C8.42418 8.05304 7.99957 9.05858 7.98514 10.1113L9.98495 10.1387C9.99224 9.60689 10.2068 9.09889 10.5828 8.7228L9.16863 7.30859ZM7.98519 10.1077C7.972 10.8691 8.18622 11.6171 8.60019 12.2563L10.2789 11.1692C10.0809 10.8634 9.97859 10.5059 9.98489 10.1423L7.98519 10.1077ZM8.54269 12.1551L10.9037 16.9423L12.6974 16.0577L10.3364 11.2704L8.54269 12.1551ZM11.8005 17.5H12.2003V15.5H11.8005V17.5ZM13.0972 16.9422L15.4575 12.155L13.6636 11.2705L11.3034 16.0578L13.0972 16.9422ZM15.3993 12.2573C15.8146 11.6176 16.0291 10.8688 16.0149 10.1063L14.0152 10.1437C14.022 10.5062 13.92 10.8629 13.7218 11.1682L15.3993 12.2573ZM16.0149 10.1111C16.0003 9.05845 15.5755 8.05307 14.831 7.30879L13.417 8.72321C13.7932 9.09922 14.0077 9.60713 14.0151 10.1389L16.0149 10.1111ZM11.8227 8.86765L11.8842 8.87515L12.1263 6.88985L12.0648 6.88235L11.8227 8.86765ZM12.1392 8.87349L12.1947 8.86599L11.9269 6.88401L11.8714 6.89151L12.1392 8.87349ZM12.0173 8.87405C12.351 8.88859 12.6664 9.03041 12.8988 9.27036L14.3356 7.87903C13.7474 7.27169 12.949 6.91273 12.1043 6.87595L12.0173 8.87405ZM12.8988 9.27036C13.1312 9.51031 13.2628 9.83016 13.2666 10.1642L15.2665 10.1413C15.2568 9.29595 14.9237 8.48638 14.3356 7.87903L12.8988 9.27036ZM13.2666 10.1665C13.2696 10.3813 13.2068 10.592 13.0868 10.7702L14.7458 11.8873C15.0933 11.3712 15.275 10.7612 15.2665 10.139L13.2666 10.1665ZM13.0544 10.8217L13.0394 10.8472L14.7632 11.8613L14.7782 11.8358L13.0544 10.8217ZM13.0018 10.9173L12.989 10.9436L14.788 11.8174L14.8008 11.7912L13.0018 10.9173ZM12.9917 10.9381L11.1032 14.7669L12.8969 15.6516L14.7854 11.8229L12.9917 10.9381ZM12.8968 14.7667L11.009 10.9417L9.21556 11.8268L11.1033 15.6518L12.8968 14.7667ZM11.029 10.9847L11.0162 10.9554L9.18285 11.7546L9.1956 11.7838L11.029 10.9847ZM10.9615 10.848L10.9465 10.8225L9.22261 11.8365L9.23761 11.862L10.9615 10.848ZM10.914 10.7709C10.794 10.5927 10.7313 10.3821 10.7342 10.1672L8.73439 10.1398C8.72586 10.762 8.90752 11.3719 9.25508 11.8881L10.914 10.7709ZM10.7342 10.1643C10.7379 9.83003 10.8696 9.50985 11.1023 9.26981L9.66627 7.87774C9.07708 8.48554 8.74352 9.29622 8.73435 10.1427L10.7342 10.1643ZM11.1023 9.26981C11.335 9.02976 11.6509 8.88813 11.985 8.87412L11.9011 6.87588C11.0554 6.91135 10.2555 7.26995 9.66627 7.87774L11.1023 9.26981ZM11.943 8.875H11.9438V6.875H11.943V8.875ZM12.9586 8.67047C12.7676 8.54271 12.5532 8.45384 12.3278 8.40892L11.937 10.3704C11.9048 10.3639 11.8742 10.3513 11.8469 10.333L12.9586 8.67047ZM12.3278 8.40892C12.1024 8.36401 11.8704 8.36393 11.6449 8.40869L12.0344 10.3704C12.0023 10.3768 11.9691 10.3768 11.937 10.3704L12.3278 8.40892ZM11.6449 8.40869C11.4195 8.45345 11.2051 8.54218 11.0139 8.66981L12.1245 10.3331C12.0972 10.3513 12.0666 10.364 12.0344 10.3704L11.6449 8.40869ZM11.0139 8.66981C10.8228 8.79743 10.6586 8.96146 10.5309 9.15252L12.1934 10.2642C12.1752 10.2915 12.1518 10.3149 12.1245 10.3331L11.0139 8.66981ZM10.5309 9.15252C10.4031 9.34358 10.3143 9.55794 10.2693 9.78334L12.2308 10.1742C12.2244 10.2064 12.2117 10.237 12.1934 10.2642L10.5309 9.15252ZM10.2693 9.78334C10.2244 10.0088 10.2243 10.2408 10.2691 10.4662L12.2308 10.0767C12.2372 10.1089 12.2372 10.142 12.2308 10.1742L10.2693 9.78334ZM10.2691 10.4662C10.3139 10.6917 10.4026 10.9061 10.5302 11.0972L12.1935 9.98666C12.2118 10.0139 12.2244 10.0445 12.2308 10.0767L10.2691 10.4662ZM10.5302 11.0972C10.6579 11.2884 10.8219 11.4525 11.0129 11.5803L12.1246 9.91772C12.1519 9.93595 12.1753 9.95938 12.1935 9.98666L10.5302 11.0972ZM11.0129 11.5803C11.3988 11.8383 11.8714 11.9325 12.3267 11.8421L11.9371 9.88036C12.0021 9.86745 12.0696 9.88089 12.1246 9.91772L11.0129 11.5803ZM12.3267 11.8421C12.7819 11.7517 13.1827 11.4841 13.4407 11.0982L11.7781 9.98652C11.815 9.93145 11.8722 9.89326 11.9371 9.88036L12.3267 11.8421ZM13.4407 11.0982C13.6987 10.7124 13.7929 10.2398 13.7025 9.78451L11.7408 10.174C11.7279 10.109 11.7413 10.0416 11.7781 9.98652L13.4407 11.0982ZM13.7025 9.78451C13.6121 9.32922 13.3445 8.92849 12.9586 8.67047L11.8469 10.333C11.7919 10.2962 11.7537 10.239 11.7408 10.174L13.7025 9.78451ZM11.7276 9.69585C11.7822 9.6575 11.8438 9.63046 11.909 9.6163L11.4843 7.66191C11.1585 7.7327 10.8502 7.86793 10.5775 8.05965L11.7276 9.69585ZM11.909 9.6163C11.9741 9.60214 12.0415 9.60116 12.107 9.61341L12.4745 7.64745C12.1468 7.5862 11.8101 7.59112 11.4843 7.66191L11.909 9.6163ZM12.107 9.61341C12.1726 9.62566 12.235 9.65089 12.2906 9.68763L13.3925 8.01855C13.1143 7.83488 12.8022 7.7087 12.4745 7.64745L12.107 9.61341ZM12.2906 9.68763C12.3463 9.72436 12.394 9.77186 12.431 9.82732L14.0945 8.71699C13.9094 8.4397 13.6708 8.20223 13.3925 8.01855L12.2906 9.68763ZM12.431 9.82732C12.468 9.88277 12.4936 9.94508 12.5062 10.0106L14.4703 9.63319C14.4074 9.30579 14.2796 8.99428 14.0945 8.71699L12.431 9.82732ZM12.5062 10.0106C12.5188 10.076 12.5181 10.1434 12.5043 10.2086L14.4608 10.6234C14.5299 10.2973 14.5332 9.96058 14.4703 9.63319L12.5062 10.0106ZM12.5043 10.2086C12.4905 10.2738 12.4637 10.3356 12.4257 10.3904L14.0676 11.5322C14.258 11.2585 14.3917 10.9495 14.4608 10.6234L12.5043 10.2086ZM12.4257 10.3904C12.3876 10.4451 12.339 10.4917 12.2826 10.5273L13.3525 12.2172C13.6341 12.0388 13.8773 11.8059 14.0676 11.5322L12.4257 10.3904ZM12.2826 10.5273C12.1723 10.5972 12.0391 10.6211 11.9115 10.594L11.4967 12.5505C12.1351 12.6859 12.8011 12.5662 13.3525 12.2172L12.2826 10.5273ZM11.9115 10.594C11.7838 10.567 11.6717 10.491 11.5993 10.3825L9.93581 11.4928C10.2981 12.0356 10.8583 12.4152 11.4967 12.5505L11.9115 10.594ZM11.5993 10.3825C11.5268 10.2739 11.4997 10.1413 11.5237 10.013L9.55772 9.6456C9.43782 10.2871 9.57351 10.95 9.93581 11.4928L11.5993 10.3825ZM11.5237 10.013C11.5477 9.88474 11.6208 9.77091 11.7276 9.69585L10.5775 8.05965C10.0436 8.43494 9.67761 9.00412 9.55772 9.6456L11.5237 10.013Z" fill="#4957D3" mask="url(#path-2-inside-1_1_1148)"/>
</svg>
