<svg width="32" height="32" viewBox="0 0 32 32" fill="none" xmlns="http://www.w3.org/2000/svg">
<circle cx="16" cy="16" r="16" fill="#E6E6FF"/>
<path d="M18.4785 11.0415L18.4786 11.0416C19.0422 11.6051 19.3975 12.3386 19.4939 13.1223C19.3971 12.359 19.0558 11.6431 18.5154 11.0851C17.9857 10.5381 17.2982 10.1774 16.5554 10.0492C17.2796 10.1714 17.953 10.5159 18.4785 11.0415ZM16.4485 20.5002L17.7611 17.839L16.0005 21.4099L15.8841 21.1738L16.0002 21.409L16.4485 20.5002ZM12.4842 13.3763C12.5285 12.4979 12.8971 11.6652 13.5212 11.0411C14.0675 10.4949 14.7736 10.1444 15.5302 10.0357C14.7558 10.1502 14.0364 10.5166 13.4867 11.0837C12.886 11.7033 12.5311 12.5181 12.4842 13.3763ZM15.9856 10.0037L15.9591 10.0004C15.9672 10.0003 15.9754 10.0001 15.9836 10H16.0165C16.0255 10.0001 16.0346 10.0003 16.0437 10.0005L16.0141 10.0045L16.0038 10.0059L15.9856 10.0037ZM16.8654 14.7124C17.0062 14.6097 17.1294 14.4822 17.2282 14.3344C17.4494 14.0037 17.5301 13.5986 17.4526 13.2083C17.3751 12.818 17.1457 12.4745 16.815 12.2534C16.6512 12.1438 16.4675 12.0677 16.2742 12.0292C16.081 11.9907 15.8821 11.9906 15.6889 12.029C15.4962 12.0672 15.313 12.1429 15.1495 12.2517C15.1522 12.2498 15.1549 12.2479 15.1576 12.246C15.3212 12.131 15.5062 12.0499 15.7017 12.0074C15.8972 11.9649 16.0992 11.962 16.2958 11.9987C16.4924 12.0355 16.6797 12.1112 16.8466 12.2214C17.0136 12.3316 17.1568 12.4741 17.2678 12.6405C17.3789 12.8068 17.4555 12.9937 17.4933 13.1902C17.531 13.3866 17.5291 13.5886 17.4876 13.7843C17.4461 13.98 17.3659 14.1654 17.2517 14.3296C17.1472 14.4798 17.0163 14.6095 16.8654 14.7124Z" fill="#333333" stroke="#4957D3"/>
</svg>
