<svg width="24" height="24" viewBox="0 0 24 24" fill="none" xmlns="http://www.w3.org/2000/svg">
<path d="M20 7.54281C20 6.58191 20 6.101 19.7484 5.73893C19.4969 5.37686 19.0569 5.22485 18.1769 4.92083L17.1413 4.56337C15.9262 4.14326 15.3191 3.93321 14.7067 4.01889C14.0951 4.10364 13.5618 4.47124 12.496 5.20735L11.2676 6.05677C10.4356 6.63166 10.0196 6.9191 9.552 7.03334C9.38085 7.07569 9.20607 7.10038 9.03022 7.10704C8.55022 7.12363 8.07644 6.95964 7.128 6.63166C5.88533 6.20234 5.264 5.98768 4.79111 6.20602C4.62353 6.2833 4.47314 6.39558 4.34933 6.53584C4 6.93292 4 7.61099 4 8.96896V12.714M20 11.0787V15.031C20 16.389 20 17.068 19.6507 17.4632C19.527 17.6042 19.3766 17.7171 19.2089 17.7949C18.736 18.0123 18.1147 17.7977 16.872 17.3683C15.9236 17.0404 15.4498 16.8764 14.9698 16.8939C14.7937 16.8999 14.6186 16.924 14.4471 16.9657C13.9804 17.0809 13.5644 17.3683 12.7324 17.9423L11.504 18.7917C10.4373 19.5288 9.90489 19.8973 9.29333 19.9811C8.68178 20.0668 8.07378 19.8567 6.85867 19.4366L5.82311 19.0792C4.94311 18.7751 4.50311 18.6231 4.25156 18.2611C4.01333 17.9184 4.00089 17.4688 4 16.6064M14.6667 4.16906V7.39356M14.6667 16.6064V11.0787M9.33333 19.8309V16.6064M9.33333 7.39356V12.9213" stroke="white" stroke-width="1.5" stroke-linecap="round"/>
</svg>
