<svg width="32" height="32" viewBox="0 0 32 32" fill="none" xmlns="http://www.w3.org/2000/svg">
<circle cx="16" cy="16" r="16" fill="#FFE6E6"/>
<path d="M15.2856 15.9999C15.2856 16.1894 15.3609 16.371 15.4948 16.505C15.6288 16.6389 15.8105 16.7142 15.9999 16.7142C16.1894 16.7142 16.371 16.6389 16.505 16.505C16.6389 16.371 16.7142 16.1894 16.7142 15.9999C16.7142 15.8105 16.6389 15.6288 16.505 15.4948C16.371 15.3609 16.1894 15.2856 15.9999 15.2856C15.8105 15.2856 15.6288 15.3609 15.4948 15.4948C15.3609 15.6288 15.2856 15.8105 15.2856 15.9999ZM18.2618 15.9999C18.2618 16.1894 18.3371 16.371 18.471 16.505C18.605 16.6389 18.7866 16.7142 18.9761 16.7142C19.1655 16.7142 19.3472 16.6389 19.4811 16.505C19.6151 16.371 19.6903 16.1894 19.6903 15.9999C19.6903 15.8105 19.6151 15.6288 19.4811 15.4948C19.3472 15.3609 19.1655 15.2856 18.9761 15.2856C18.7866 15.2856 18.605 15.3609 18.471 15.4948C18.3371 15.6288 18.2618 15.8105 18.2618 15.9999ZM12.3095 15.9999C12.3095 16.1894 12.3847 16.371 12.5187 16.505C12.6526 16.6389 12.8343 16.7142 13.0238 16.7142C13.2132 16.7142 13.3949 16.6389 13.5288 16.505C13.6628 16.371 13.738 16.1894 13.738 15.9999C13.738 15.8105 13.6628 15.6288 13.5288 15.4948C13.3949 15.3609 13.2132 15.2856 13.0238 15.2856C12.8343 15.2856 12.6526 15.3609 12.5187 15.4948C12.3847 15.6288 12.3095 15.8105 12.3095 15.9999ZM22.1487 13.4166C21.8123 12.6175 21.3302 11.9002 20.7156 11.2841C20.1054 10.6716 19.3809 10.1848 18.5832 9.85111C17.7648 9.50736 16.8957 9.33325 15.9999 9.33325H15.9702C15.0684 9.33772 14.1949 9.51629 13.3735 9.86748C12.5826 10.2046 11.8649 10.6923 11.2604 11.3035C10.6518 11.9181 10.1741 12.6324 9.84375 13.4285C9.50149 14.2529 9.32887 15.1294 9.33334 16.0312C9.33839 17.0646 9.58287 18.0828 10.0476 19.0059V21.2678C10.0476 21.4493 10.1197 21.6234 10.2481 21.7518C10.3765 21.8802 10.5506 21.9523 10.7321 21.9523H12.9955C13.9185 22.417 14.9367 22.6615 15.9702 22.6666H16.0014C16.8928 22.6666 17.7573 22.494 18.5713 22.1562C19.3649 21.8265 20.0867 21.3453 20.6963 20.7395C21.3109 20.1309 21.7945 19.4196 22.1323 18.6264C22.4835 17.805 22.662 16.9315 22.6665 16.0297C22.671 15.1234 22.4954 14.244 22.1487 13.4166ZM19.9002 19.9344C18.857 20.9672 17.4731 21.5356 15.9999 21.5356H15.9746C15.0773 21.5312 14.186 21.308 13.3988 20.8883L13.2738 20.8213H11.1786V18.7261L11.1116 18.6011C10.692 17.8139 10.4687 16.9225 10.4643 16.0252C10.4583 14.5416 11.0253 13.1487 12.0654 12.0996C13.1041 11.0505 14.4925 10.4702 15.9761 10.4642H16.0014C16.7454 10.4642 17.4672 10.6085 18.1472 10.8943C18.8109 11.1725 19.4061 11.5728 19.918 12.0847C20.4284 12.5952 20.8302 13.1919 21.1085 13.8556C21.3972 14.5431 21.5415 15.2722 21.5385 16.0252C21.5296 17.5074 20.9478 18.8958 19.9002 19.9344Z" fill="#D34949"/>
</svg>
