<svg width="32" height="32" viewBox="0 0 32 32" fill="none" xmlns="http://www.w3.org/2000/svg">
<circle cx="16" cy="16" r="16" fill="#E2F5EF"/>
<mask id="path-2-inside-1_228_3396" fill="white">
<path d="M14.9999 13.3333C14.7373 13.3333 14.4772 13.385 14.2346 13.4855C13.9919 13.586 13.7714 13.7333 13.5857 13.919C13.4 14.1048 13.2527 14.3252 13.1522 14.5679C13.0517 14.8105 12.9999 15.0706 12.9999 15.3333C12.9999 15.5959 13.0517 15.856 13.1522 16.0986C13.2527 16.3413 13.4 16.5617 13.5857 16.7475C13.7714 16.9332 13.9919 17.0805 14.2346 17.181C14.4772 17.2815 14.7373 17.3333 14.9999 17.3333C15.5304 17.3333 16.0391 17.1225 16.4141 16.7475C16.7892 16.3724 16.9999 15.8637 16.9999 15.3333C16.9999 14.8028 16.7892 14.2941 16.4141 13.919C16.0391 13.544 15.5304 13.3333 14.9999 13.3333ZM13.9999 15.3333C13.9999 15.068 14.1053 14.8137 14.2928 14.6261C14.4803 14.4386 14.7347 14.3333 14.9999 14.3333C15.2651 14.3333 15.5195 14.4386 15.707 14.6261C15.8946 14.8137 15.9999 15.068 15.9999 15.3333C15.9999 15.5985 15.8946 15.8528 15.707 16.0404C15.5195 16.2279 15.2651 16.3333 14.9999 16.3333C14.7347 16.3333 14.4803 16.2279 14.2928 16.0404C14.1053 15.8528 13.9999 15.5985 13.9999 15.3333ZM9.33325 12.8333C9.33325 12.4354 9.49129 12.0539 9.77259 11.7726C10.0539 11.4913 10.4354 11.3333 10.8333 11.3333H19.1666C19.3636 11.3333 19.5586 11.3721 19.7406 11.4474C19.9226 11.5228 20.088 11.6333 20.2272 11.7726C20.3665 11.9119 20.477 12.0772 20.5524 12.2592C20.6278 12.4412 20.6666 12.6363 20.6666 12.8333V17.8333C20.6666 18.0302 20.6278 18.2253 20.5524 18.4073C20.477 18.5893 20.3665 18.7546 20.2272 18.8939C20.088 19.0332 19.9226 19.1437 19.7406 19.2191C19.5586 19.2945 19.3636 19.3333 19.1666 19.3333H10.8333C10.4354 19.3333 10.0539 19.1752 9.77259 18.8939C9.49129 18.6126 9.33325 18.2311 9.33325 17.8333V12.8333ZM10.8333 12.3333C10.7006 12.3333 10.5735 12.3859 10.4797 12.4797C10.3859 12.5735 10.3333 12.7006 10.3333 12.8333V13.3333H10.8333C10.9659 13.3333 11.093 13.2806 11.1868 13.1868C11.2806 13.093 11.3333 12.9659 11.3333 12.8333V12.3333H10.8333ZM10.3333 16.3333H10.8333C11.2311 16.3333 11.6126 16.4913 11.8939 16.7726C12.1752 17.0539 12.3333 17.4354 12.3333 17.8333V18.3333H17.6666V17.8333C17.6666 17.4354 17.8246 17.0539 18.1059 16.7726C18.3872 16.4913 18.7688 16.3333 19.1666 16.3333H19.6666V14.3333H19.1666C18.7688 14.3333 18.3872 14.1752 18.1059 13.8939C17.8246 13.6126 17.6666 13.2311 17.6666 12.8333V12.3333H12.3333V12.8333C12.3333 13.0302 12.2945 13.2253 12.2191 13.4073C12.1437 13.5893 12.0332 13.7546 11.8939 13.8939C11.7546 14.0332 11.5893 14.1437 11.4073 14.2191C11.2253 14.2945 11.0302 14.3333 10.8333 14.3333H10.3333V16.3333ZM19.6666 13.3333V12.8333C19.6666 12.7006 19.6139 12.5735 19.5201 12.4797C19.4264 12.3859 19.2992 12.3333 19.1666 12.3333H18.6666V12.8333C18.6666 13.1093 18.8906 13.3333 19.1666 13.3333H19.6666ZM19.6666 17.3333H19.1666C19.034 17.3333 18.9068 17.3859 18.813 17.4797C18.7193 17.5735 18.6666 17.7006 18.6666 17.8333V18.3333H19.1666C19.2992 18.3333 19.4264 18.2806 19.5201 18.1868C19.6139 18.093 19.6666 17.9659 19.6666 17.8333V17.3333ZM10.3333 17.8333C10.3333 18.1093 10.5573 18.3333 10.8333 18.3333H11.3333V17.8333C11.3333 17.7006 11.2806 17.5735 11.1868 17.4797C11.093 17.3859 10.9659 17.3333 10.8333 17.3333H10.3333V17.8333ZM10.9339 20.3333C11.1095 20.6374 11.362 20.89 11.6662 21.0655C11.9704 21.2411 12.3154 21.3334 12.6666 21.3333H19.4999C19.9158 21.3333 20.3276 21.2513 20.7118 21.0922C21.0959 20.9331 21.445 20.6998 21.7391 20.4058C22.0331 20.1117 22.2664 19.7626 22.4255 19.3784C22.5847 18.9942 22.6666 18.5824 22.6666 18.1666V14.6666C22.6667 14.3154 22.5743 13.9704 22.3988 13.6662C22.2232 13.3621 21.9707 13.1095 21.6666 12.9339V18.1666C21.6666 18.7412 21.4383 19.2923 21.032 19.6987C20.6257 20.105 20.0746 20.3333 19.4999 20.3333H10.9339Z"/>
</mask>
<path d="M14.9999 13.3333C14.7373 13.3333 14.4772 13.385 14.2346 13.4855C13.9919 13.586 13.7714 13.7333 13.5857 13.919C13.4 14.1048 13.2527 14.3252 13.1522 14.5679C13.0517 14.8105 12.9999 15.0706 12.9999 15.3333C12.9999 15.5959 13.0517 15.856 13.1522 16.0986C13.2527 16.3413 13.4 16.5617 13.5857 16.7475C13.7714 16.9332 13.9919 17.0805 14.2346 17.181C14.4772 17.2815 14.7373 17.3333 14.9999 17.3333C15.5304 17.3333 16.0391 17.1225 16.4141 16.7475C16.7892 16.3724 16.9999 15.8637 16.9999 15.3333C16.9999 14.8028 16.7892 14.2941 16.4141 13.919C16.0391 13.544 15.5304 13.3333 14.9999 13.3333ZM13.9999 15.3333C13.9999 15.068 14.1053 14.8137 14.2928 14.6261C14.4803 14.4386 14.7347 14.3333 14.9999 14.3333C15.2651 14.3333 15.5195 14.4386 15.707 14.6261C15.8946 14.8137 15.9999 15.068 15.9999 15.3333C15.9999 15.5985 15.8946 15.8528 15.707 16.0404C15.5195 16.2279 15.2651 16.3333 14.9999 16.3333C14.7347 16.3333 14.4803 16.2279 14.2928 16.0404C14.1053 15.8528 13.9999 15.5985 13.9999 15.3333ZM9.33325 12.8333C9.33325 12.4354 9.49129 12.0539 9.77259 11.7726C10.0539 11.4913 10.4354 11.3333 10.8333 11.3333H19.1666C19.3636 11.3333 19.5586 11.3721 19.7406 11.4474C19.9226 11.5228 20.088 11.6333 20.2272 11.7726C20.3665 11.9119 20.477 12.0772 20.5524 12.2592C20.6278 12.4412 20.6666 12.6363 20.6666 12.8333V17.8333C20.6666 18.0302 20.6278 18.2253 20.5524 18.4073C20.477 18.5893 20.3665 18.7546 20.2272 18.8939C20.088 19.0332 19.9226 19.1437 19.7406 19.2191C19.5586 19.2945 19.3636 19.3333 19.1666 19.3333H10.8333C10.4354 19.3333 10.0539 19.1752 9.77259 18.8939C9.49129 18.6126 9.33325 18.2311 9.33325 17.8333V12.8333ZM10.8333 12.3333C10.7006 12.3333 10.5735 12.3859 10.4797 12.4797C10.3859 12.5735 10.3333 12.7006 10.3333 12.8333V13.3333H10.8333C10.9659 13.3333 11.093 13.2806 11.1868 13.1868C11.2806 13.093 11.3333 12.9659 11.3333 12.8333V12.3333H10.8333ZM10.3333 16.3333H10.8333C11.2311 16.3333 11.6126 16.4913 11.8939 16.7726C12.1752 17.0539 12.3333 17.4354 12.3333 17.8333V18.3333H17.6666V17.8333C17.6666 17.4354 17.8246 17.0539 18.1059 16.7726C18.3872 16.4913 18.7688 16.3333 19.1666 16.3333H19.6666V14.3333H19.1666C18.7688 14.3333 18.3872 14.1752 18.1059 13.8939C17.8246 13.6126 17.6666 13.2311 17.6666 12.8333V12.3333H12.3333V12.8333C12.3333 13.0302 12.2945 13.2253 12.2191 13.4073C12.1437 13.5893 12.0332 13.7546 11.8939 13.8939C11.7546 14.0332 11.5893 14.1437 11.4073 14.2191C11.2253 14.2945 11.0302 14.3333 10.8333 14.3333H10.3333V16.3333ZM19.6666 13.3333V12.8333C19.6666 12.7006 19.6139 12.5735 19.5201 12.4797C19.4264 12.3859 19.2992 12.3333 19.1666 12.3333H18.6666V12.8333C18.6666 13.1093 18.8906 13.3333 19.1666 13.3333H19.6666ZM19.6666 17.3333H19.1666C19.034 17.3333 18.9068 17.3859 18.813 17.4797C18.7193 17.5735 18.6666 17.7006 18.6666 17.8333V18.3333H19.1666C19.2992 18.3333 19.4264 18.2806 19.5201 18.1868C19.6139 18.093 19.6666 17.9659 19.6666 17.8333V17.3333ZM10.3333 17.8333C10.3333 18.1093 10.5573 18.3333 10.8333 18.3333H11.3333V17.8333C11.3333 17.7006 11.2806 17.5735 11.1868 17.4797C11.093 17.3859 10.9659 17.3333 10.8333 17.3333H10.3333V17.8333ZM10.9339 20.3333C11.1095 20.6374 11.362 20.89 11.6662 21.0655C11.9704 21.2411 12.3154 21.3334 12.6666 21.3333H19.4999C19.9158 21.3333 20.3276 21.2513 20.7118 21.0922C21.0959 20.9331 21.445 20.6998 21.7391 20.4058C22.0331 20.1117 22.2664 19.7626 22.4255 19.3784C22.5847 18.9942 22.6666 18.5824 22.6666 18.1666V14.6666C22.6667 14.3154 22.5743 13.9704 22.3988 13.6662C22.2232 13.3621 21.9707 13.1095 21.6666 12.9339V18.1666C21.6666 18.7412 21.4383 19.2923 21.032 19.6987C20.6257 20.105 20.0746 20.3333 19.4999 20.3333H10.9339Z" fill="#333333" stroke="#24B07C" stroke-width="2" mask="url(#path-2-inside-1_228_3396)"/>
</svg>
