<svg width="32" height="32" viewBox="0 0 32 32" fill="none" xmlns="http://www.w3.org/2000/svg">
<circle cx="16" cy="16" r="16" fill="#7948EC"/>
<path d="M10 19.3333C10 19.8638 10.2107 20.3725 10.5858 20.7476C10.9609 21.1226 11.4696 21.3333 12 21.3333C12.5304 21.3333 13.0391 21.1226 13.4142 20.7476C13.7893 20.3725 14 19.8638 14 19.3333C14 18.8029 13.7893 18.2942 13.4142 17.9191C13.0391 17.5441 12.5304 17.3333 12 17.3333C11.4696 17.3333 10.9609 17.5441 10.5858 17.9191C10.2107 18.2942 10 18.8029 10 19.3333ZM16.6667 19.3333C16.6667 19.8638 16.8774 20.3725 17.2525 20.7476C17.6275 21.1226 18.1362 21.3333 18.6667 21.3333C19.1971 21.3333 19.7058 21.1226 20.0809 20.7476C20.456 20.3725 20.6667 19.8638 20.6667 19.3333C20.6667 18.8029 20.456 18.2942 20.0809 17.9191C19.7058 17.5441 19.1971 17.3333 18.6667 17.3333C18.1362 17.3333 17.6275 17.5441 17.2525 17.9191C16.8774 18.2942 16.6667 18.8029 16.6667 19.3333Z" stroke="white" stroke-width="1.2" stroke-linecap="round" stroke-linejoin="round"/>
<path d="M14 19.3333V10.6667H20.6667V19.3333M14 13.3333H20.6667" stroke="white" stroke-width="1.2" stroke-linecap="round" stroke-linejoin="round"/>
</svg>
