<svg width="32" height="32" viewBox="0 0 32 32" fill="none" xmlns="http://www.w3.org/2000/svg">
<circle cx="16" cy="16" r="16" fill="#24B07C"/>
<path d="M20 13C20.442 13 20.866 12.8244 21.1785 12.5118C21.4911 12.1993 21.6667 11.7754 21.6667 11.3333C21.6667 10.8913 21.4911 10.4674 21.1785 10.1548C20.866 9.84226 20.442 9.66667 20 9.66667C19.558 9.66667 19.1341 9.84226 18.8215 10.1548C18.5089 10.4674 18.3333 10.8913 18.3333 11.3333C18.3333 11.7754 18.5089 12.1993 18.8215 12.5118C19.1341 12.8244 19.558 13 20 13Z" stroke="white" stroke-width="1.2"/>
<path d="M12 13.59L14.6677 12.666L18.3333 14.4157L14.6677 17.148L18.3333 19.5613L16.0027 22.666M19.7733 15.2143L20.6673 15.7007L22.6667 13.822M13.6163 18.515L12.6263 19.819L9.33467 21.6657" stroke="white" stroke-width="1.2" stroke-linecap="round" stroke-linejoin="round"/>
</svg>
