<svg width="32" height="32" viewBox="0 0 32 32" fill="none" xmlns="http://www.w3.org/2000/svg">
<circle cx="16" cy="16" r="16" fill="#FFF4E8"/>
<g clip-path="url(#clip0_228_3380)">
<mask id="path-2-inside-1_228_3380" fill="white">
<path d="M15.9999 13.3333C14.5142 13.3333 13.3333 14.5142 13.3333 15.9999C13.3333 17.4856 14.5142 18.6666 15.9999 18.6666C17.4856 18.6666 18.6666 17.4856 18.6666 15.9999C18.6666 14.5142 17.4856 13.3333 15.9999 13.3333ZM15.9999 17.9047C14.9333 17.9047 14.0952 17.0666 14.0952 15.9999C14.0952 14.9333 14.9333 14.0952 15.9999 14.0952C17.0666 14.0952 17.9047 14.9333 17.9047 15.9999C17.9047 17.0666 17.0666 17.9047 15.9999 17.9047Z"/>
</mask>
<path d="M15.9999 13.3333C14.5142 13.3333 13.3333 14.5142 13.3333 15.9999C13.3333 17.4856 14.5142 18.6666 15.9999 18.6666C17.4856 18.6666 18.6666 17.4856 18.6666 15.9999C18.6666 14.5142 17.4856 13.3333 15.9999 13.3333ZM15.9999 17.9047C14.9333 17.9047 14.0952 17.0666 14.0952 15.9999C14.0952 14.9333 14.9333 14.0952 15.9999 14.0952C17.0666 14.0952 17.9047 14.9333 17.9047 15.9999C17.9047 17.0666 17.0666 17.9047 15.9999 17.9047Z" fill="#FE8700"/>
<path d="M15.9999 12.3333C13.9619 12.3333 12.3333 13.9619 12.3333 15.9999H14.3333C14.3333 15.0665 15.0665 14.3333 15.9999 14.3333V12.3333ZM12.3333 15.9999C12.3333 18.0379 13.9619 19.6666 15.9999 19.6666V17.6666C15.0665 17.6666 14.3333 16.9333 14.3333 15.9999H12.3333ZM15.9999 19.6666C18.0379 19.6666 19.6666 18.0379 19.6666 15.9999H17.6666C17.6666 16.9333 16.9333 17.6666 15.9999 17.6666V19.6666ZM19.6666 15.9999C19.6666 13.9619 18.0379 12.3333 15.9999 12.3333V14.3333C16.9333 14.3333 17.6666 15.0665 17.6666 15.9999H19.6666ZM15.9999 16.9047C15.4855 16.9047 15.0952 16.5143 15.0952 15.9999H13.0952C13.0952 17.6189 14.381 18.9047 15.9999 18.9047V16.9047ZM15.0952 15.9999C15.0952 15.4855 15.4855 15.0952 15.9999 15.0952V13.0952C14.381 13.0952 13.0952 14.381 13.0952 15.9999H15.0952ZM15.9999 15.0952C16.5143 15.0952 16.9047 15.4855 16.9047 15.9999H18.9047C18.9047 14.381 17.6189 13.0952 15.9999 13.0952V15.0952ZM16.9047 15.9999C16.9047 16.5143 16.5143 16.9047 15.9999 16.9047V18.9047C17.6189 18.9047 18.9047 17.6189 18.9047 15.9999H16.9047Z" fill="#FE8700" mask="url(#path-2-inside-1_228_3380)"/>
<path d="M21.55 14.7625L20.5 14.425L20.275 13.8625L20.8 12.8875C20.9125 12.6625 20.875 12.3625 20.6875 12.175L19.7875 11.275C19.6 11.0875 19.3 11.05 19.075 11.1625L18.1 11.6875L17.5375 11.4625L17.2 10.4125C17.125 10.1875 16.9 10 16.6375 10H15.3625C15.1 10 14.875 10.1875 14.8375 10.45L14.5 11.5C14.275 11.5375 14.0875 11.6125 13.9 11.725L12.925 11.2C12.7 11.0875 12.4 11.125 12.2125 11.3125L11.3125 12.2125C11.125 12.4 11.0875 12.7 11.2 12.925L11.6875 13.8625C11.6125 14.05 11.5375 14.275 11.4625 14.4625L10.4125 14.8C10.1875 14.875 10 15.1 10 15.3625V16.6375C10 16.9 10.1875 17.125 10.45 17.2L11.5 17.5375L11.725 18.1L11.2 19.075C11.0875 19.3 11.125 19.6 11.3125 19.7875L12.2125 20.6875C12.4 20.875 12.7 20.9125 12.925 20.8L13.9 20.275L14.4625 20.5L14.8 21.5875C14.875 21.8125 15.1 22 15.3625 22H16.6375C16.9 22 17.125 21.8125 17.2 21.5875L17.5375 20.5L18.1 20.275L19.075 20.8C19.3 20.9125 19.6 20.875 19.7875 20.6875L20.6875 19.7875C20.875 19.6 20.9125 19.3 20.8 19.075L20.275 18.1L20.5 17.5375L21.5875 17.2C21.8125 17.125 22 16.9 22 16.6375V15.3625C22 15.1 21.8125 14.8375 21.55 14.7625ZM21.25 16.525L19.9 16.9375L19.8625 17.125L19.525 17.9125L19.4125 18.1L20.0875 19.3375L19.3375 20.0875L18.1 19.4125L17.9125 19.525C17.65 19.675 17.3875 19.7875 17.125 19.8625L16.9375 19.9L16.525 21.25H15.475L15.0625 19.9L14.875 19.8625L14.0875 19.525L13.9 19.4125L12.6625 20.0875L11.9125 19.3375L12.5875 18.1L12.475 17.9125C12.325 17.65 12.2125 17.3875 12.1375 17.125L12.1 16.9375L10.75 16.525V15.475L12.025 15.1L12.1 14.9125C12.175 14.6125 12.2875 14.35 12.4375 14.0875L12.55 13.9L11.9125 12.6625L12.6625 11.9125L13.8625 12.5875L14.05 12.475C14.3125 12.325 14.575 12.2125 14.875 12.1375L15.0625 12.0625L15.475 10.75H16.525L16.9375 12.0625L17.125 12.1375C17.3875 12.2125 17.65 12.325 17.9125 12.475L18.1 12.5875L19.3375 11.9125L20.0875 12.6625L19.4125 13.9L19.525 14.0875C19.675 14.35 19.7875 14.6125 19.8625 14.875L19.9 15.0625L21.25 15.475V16.525Z" fill="#FE8700"/>
</g>
<defs>
<clipPath id="clip0_228_3380">
<rect width="16" height="16" fill="white" transform="translate(8 8)"/>
</clipPath>
</defs>
</svg>
