<svg width="24" height="24" viewBox="0 0 24 24" fill="none" xmlns="http://www.w3.org/2000/svg">
<circle cx="12" cy="12" r="12" fill="#F9EDFC"/>
<mask id="path-2-inside-1_1_1153" fill="white">
<path d="M15.1752 8H13.5511C13.465 8 13.3824 8.03317 13.3215 8.09221C13.2605 8.15125 13.2263 8.23132 13.2263 8.31481C13.2263 8.39831 13.2605 8.47838 13.3215 8.53742C13.3824 8.59646 13.465 8.62963 13.5511 8.62963H14.3912L13.3701 9.61933C13.0702 9.34851 12.7085 9.15026 12.3146 9.04079C11.9206 8.93133 11.5055 8.91373 11.1031 8.98946C10.7008 9.06518 10.3227 9.23207 9.99959 9.4765C9.67652 9.72092 9.41768 10.036 9.24421 10.3959C9.07075 10.7558 8.98758 11.1503 9.0015 11.5473C9.01542 11.9443 9.12603 12.3325 9.32431 12.6802C9.52258 13.0278 9.80289 13.3251 10.1423 13.5477C10.4818 13.7703 10.8708 13.9119 11.2775 13.961V14.6111H10.303C10.2169 14.6111 10.1343 14.6443 10.0734 14.7033C10.0124 14.7624 9.97822 14.8424 9.97822 14.9259C9.97822 15.0094 10.0124 15.0895 10.0734 15.1485C10.1343 15.2076 10.2169 15.2407 10.303 15.2407H11.2775V16.1852C11.2775 16.2687 11.3117 16.3488 11.3726 16.4078C11.4335 16.4668 11.5161 16.5 11.6023 16.5C11.6884 16.5 11.771 16.4668 11.8319 16.4078C11.8929 16.3488 11.9271 16.2687 11.9271 16.1852V15.2407H12.9015C12.9877 15.2407 13.0703 15.2076 13.1312 15.1485C13.1921 15.0895 13.2263 15.0094 13.2263 14.9259C13.2263 14.8424 13.1921 14.7624 13.1312 14.7033C13.0703 14.6443 12.9877 14.6111 12.9015 14.6111H11.9271V13.961C12.3625 13.9083 12.7769 13.7495 13.1318 13.4993C13.4866 13.2492 13.7703 12.916 13.9562 12.5308C14.1421 12.1456 14.2242 11.721 14.1948 11.2967C14.1654 10.8724 14.0256 10.4622 13.7882 10.1045L14.8504 9.0747V9.88889C14.8504 9.97238 14.8846 10.0525 14.9455 10.1115C15.0064 10.1705 15.089 10.2037 15.1752 10.2037C15.2613 10.2037 15.344 10.1705 15.4049 10.1115C15.4658 10.0525 15.5 9.97238 15.5 9.88889V8.31481C15.5 8.23132 15.4658 8.15125 15.4049 8.09221C15.344 8.03317 15.2613 8 15.1752 8ZM11.6023 13.3519C11.2168 13.3519 10.84 13.2411 10.5195 13.0335C10.1991 12.826 9.94926 12.531 9.80176 12.1858C9.65425 11.8407 9.61566 11.4609 9.69085 11.0945C9.76605 10.7281 9.95166 10.3915 10.2242 10.1273C10.4968 9.86315 10.844 9.68325 11.2221 9.61037C11.6001 9.53749 11.992 9.57489 12.3481 9.71786C12.7042 9.86082 13.0085 10.1029 13.2227 10.4136C13.4368 10.7242 13.5511 11.0894 13.5511 11.463C13.5506 11.9638 13.3451 12.4439 12.9797 12.798C12.6144 13.1522 12.119 13.3513 11.6023 13.3519Z"/>
</mask>
<path d="M15.1752 8H13.5511C13.465 8 13.3824 8.03317 13.3215 8.09221C13.2605 8.15125 13.2263 8.23132 13.2263 8.31481C13.2263 8.39831 13.2605 8.47838 13.3215 8.53742C13.3824 8.59646 13.465 8.62963 13.5511 8.62963H14.3912L13.3701 9.61933C13.0702 9.34851 12.7085 9.15026 12.3146 9.04079C11.9206 8.93133 11.5055 8.91373 11.1031 8.98946C10.7008 9.06518 10.3227 9.23207 9.99959 9.4765C9.67652 9.72092 9.41768 10.036 9.24421 10.3959C9.07075 10.7558 8.98758 11.1503 9.0015 11.5473C9.01542 11.9443 9.12603 12.3325 9.32431 12.6802C9.52258 13.0278 9.80289 13.3251 10.1423 13.5477C10.4818 13.7703 10.8708 13.9119 11.2775 13.961V14.6111H10.303C10.2169 14.6111 10.1343 14.6443 10.0734 14.7033C10.0124 14.7624 9.97822 14.8424 9.97822 14.9259C9.97822 15.0094 10.0124 15.0895 10.0734 15.1485C10.1343 15.2076 10.2169 15.2407 10.303 15.2407H11.2775V16.1852C11.2775 16.2687 11.3117 16.3488 11.3726 16.4078C11.4335 16.4668 11.5161 16.5 11.6023 16.5C11.6884 16.5 11.771 16.4668 11.8319 16.4078C11.8929 16.3488 11.9271 16.2687 11.9271 16.1852V15.2407H12.9015C12.9877 15.2407 13.0703 15.2076 13.1312 15.1485C13.1921 15.0895 13.2263 15.0094 13.2263 14.9259C13.2263 14.8424 13.1921 14.7624 13.1312 14.7033C13.0703 14.6443 12.9877 14.6111 12.9015 14.6111H11.9271V13.961C12.3625 13.9083 12.7769 13.7495 13.1318 13.4993C13.4866 13.2492 13.7703 12.916 13.9562 12.5308C14.1421 12.1456 14.2242 11.721 14.1948 11.2967C14.1654 10.8724 14.0256 10.4622 13.7882 10.1045L14.8504 9.0747V9.88889C14.8504 9.97238 14.8846 10.0525 14.9455 10.1115C15.0064 10.1705 15.089 10.2037 15.1752 10.2037C15.2613 10.2037 15.344 10.1705 15.4049 10.1115C15.4658 10.0525 15.5 9.97238 15.5 9.88889V8.31481C15.5 8.23132 15.4658 8.15125 15.4049 8.09221C15.344 8.03317 15.2613 8 15.1752 8ZM11.6023 13.3519C11.2168 13.3519 10.84 13.2411 10.5195 13.0335C10.1991 12.826 9.94926 12.531 9.80176 12.1858C9.65425 11.8407 9.61566 11.4609 9.69085 11.0945C9.76605 10.7281 9.95166 10.3915 10.2242 10.1273C10.4968 9.86315 10.844 9.68325 11.2221 9.61037C11.6001 9.53749 11.992 9.57489 12.3481 9.71786C12.7042 9.86082 13.0085 10.1029 13.2227 10.4136C13.4368 10.7242 13.5511 11.0894 13.5511 11.463C13.5506 11.9638 13.3451 12.4439 12.9797 12.798C12.6144 13.1522 12.119 13.3513 11.6023 13.3519Z" fill="#323232"/>
<path d="M15.1752 8V7V8ZM13.5511 8L13.5511 7L13.5511 8ZM14.3912 8.62963L15.0871 9.3477L16.8598 7.62963H14.3912V8.62963ZM13.3701 9.61933L12.6998 10.3614L13.3941 10.9886L14.066 10.3374L13.3701 9.61933ZM11.2775 13.961H12.2775V13.0744L11.3973 12.9682L11.2775 13.961ZM11.2775 14.6111V15.6111H12.2775V14.6111H11.2775ZM11.2775 15.2407H12.2775V14.2407H11.2775V15.2407ZM11.9271 15.2407V14.2407H10.9271V15.2407H11.9271ZM11.9271 14.6111H10.9271V15.6111H11.9271V14.6111ZM11.9271 13.961L11.8069 12.9683L10.9271 13.0748V13.961H11.9271ZM13.7882 10.1045L13.0921 9.3866L12.4956 9.96501L12.955 10.6574L13.7882 10.1045ZM14.8504 9.0747H15.8504V6.71222L14.1543 8.35676L14.8504 9.0747ZM11.6023 13.3519L11.6023 14.3519L11.6033 14.3519L11.6023 13.3519ZM13.5511 11.463L14.5511 11.464V11.463L13.5511 11.463ZM15.1752 7H13.5511V9H15.1752V7ZM13.5511 7C13.2097 7 12.8762 7.13117 12.6255 7.37414L14.0174 8.81028C13.8886 8.93516 13.7203 9 13.5511 9L13.5511 7ZM12.6255 7.37414C12.3737 7.61813 12.2263 7.95584 12.2263 8.31481H14.2263C14.2263 8.5068 14.1473 8.68436 14.0174 8.81028L12.6255 7.37414ZM12.2263 8.31481C12.2263 8.67379 12.3737 9.0115 12.6255 9.25549L14.0174 7.81935C14.1473 7.94527 14.2263 8.12283 14.2263 8.31481H12.2263ZM12.6255 9.25549C12.8762 9.49846 13.2097 9.62963 13.5511 9.62963V7.62963C13.7203 7.62963 13.8886 7.69447 14.0174 7.81935L12.6255 9.25549ZM13.5511 9.62963H14.3912V7.62963H13.5511V9.62963ZM13.6952 7.91156L12.6741 8.90126L14.066 10.3374L15.0871 9.3477L13.6952 7.91156ZM14.0404 8.87724C13.6239 8.50107 13.1239 8.2278 12.5823 8.0773L12.0469 10.0043C12.2931 10.0727 12.5166 10.1959 12.6998 10.3614L14.0404 8.87724ZM12.5823 8.0773C12.0407 7.92681 11.4707 7.90272 10.9182 8.00671L11.2881 9.9722C11.5403 9.92475 11.8005 9.93584 12.0469 10.0043L12.5823 8.0773ZM10.9182 8.00671C10.3656 8.11071 9.84394 8.34031 9.39625 8.67902L10.6029 10.274C10.8014 10.1238 11.036 10.0197 11.2881 9.9722L10.9182 8.00671ZM9.39625 8.67902C8.94843 9.01782 8.58677 9.45671 8.34339 9.96168L10.145 10.83C10.2486 10.6152 10.4046 10.424 10.6029 10.274L9.39625 8.67902ZM8.34339 9.96168C8.09993 10.4668 7.98248 11.0223 8.00211 11.5824L10.0009 11.5123C9.99268 11.2783 10.0416 11.0447 10.145 10.83L8.34339 9.96168ZM8.00211 11.5824C8.02175 12.1424 8.1778 12.6884 8.45564 13.1756L10.193 12.1848C10.0743 11.9766 10.0091 11.7463 10.0009 11.5123L8.00211 11.5824ZM8.45564 13.1756C8.73339 13.6626 9.12427 14.0759 9.59396 14.3839L10.6907 12.7115C10.4815 12.5743 10.3118 12.3931 10.193 12.1848L8.45564 13.1756ZM9.59396 14.3839C10.0635 14.6919 10.5994 14.8865 11.1577 14.9538L11.3973 12.9682C11.1421 12.9374 10.9001 12.8488 10.6907 12.7115L9.59396 14.3839ZM10.2775 13.961V14.6111H12.2775V13.961H10.2775ZM11.2775 13.6111H10.303V15.6111H11.2775V13.6111ZM10.303 13.6111C9.96158 13.6111 9.62806 13.7423 9.37738 13.9852L10.7693 15.4214C10.6405 15.5463 10.4722 15.6111 10.303 15.6111V13.6111ZM9.37738 13.9852C9.12564 14.2292 8.97822 14.567 8.97822 14.9259H10.9782C10.9782 15.1179 10.8992 15.2955 10.7693 15.4214L9.37738 13.9852ZM8.97822 14.9259C8.97822 15.2849 9.12564 15.6226 9.37738 15.8666L10.7693 14.4305C10.8992 14.5564 10.9782 14.7339 10.9782 14.9259H8.97822ZM9.37738 15.8666C9.62806 16.1096 9.96158 16.2407 10.303 16.2407V14.2407C10.4722 14.2407 10.6405 14.3056 10.7693 14.4305L9.37738 15.8666ZM10.303 16.2407H11.2775V14.2407H10.303V16.2407ZM10.2775 15.2407V16.1852H12.2775V15.2407H10.2775ZM10.2775 16.1852C10.2775 16.5442 10.4249 16.8819 10.6766 17.1259L12.0686 15.6897C12.1985 15.8156 12.2775 15.9932 12.2775 16.1852H10.2775ZM10.6766 17.1259C10.9273 17.3688 11.2608 17.5 11.6023 17.5V15.5C11.7714 15.5 11.9397 15.5648 12.0686 15.6897L10.6766 17.1259ZM11.6023 17.5C11.9437 17.5 12.2772 17.3688 12.5279 17.1259L11.136 15.6897C11.2648 15.5648 11.4331 15.5 11.6023 15.5V17.5ZM12.5279 17.1259C12.7797 16.8819 12.9271 16.5442 12.9271 16.1852H10.9271C10.9271 15.9932 11.0061 15.8156 11.136 15.6897L12.5279 17.1259ZM12.9271 16.1852V15.2407H10.9271V16.1852H12.9271ZM11.9271 16.2407H12.9015V14.2407H11.9271V16.2407ZM12.9015 16.2407C13.243 16.2407 13.5765 16.1096 13.8272 15.8666L12.4352 14.4305C12.5641 14.3056 12.7324 14.2407 12.9015 14.2407V16.2407ZM13.8272 15.8666C14.0789 15.6226 14.2263 15.2849 14.2263 14.9259H12.2263C12.2263 14.7339 12.3053 14.5564 12.4352 14.4305L13.8272 15.8666ZM14.2263 14.9259C14.2263 14.567 14.0789 14.2292 13.8272 13.9852L12.4352 15.4214C12.3053 15.2955 12.2263 15.1179 12.2263 14.9259H14.2263ZM13.8272 13.9852C13.5765 13.7423 13.243 13.6111 12.9015 13.6111V15.6111C12.7324 15.6111 12.5641 15.5463 12.4352 15.4214L13.8272 13.9852ZM12.9015 13.6111H11.9271V15.6111H12.9015V13.6111ZM12.9271 14.6111V13.961H10.9271V14.6111H12.9271ZM12.0473 14.9538C12.645 14.8814 13.2165 14.6631 13.7079 14.3167L12.5557 12.682C12.3374 12.8358 12.0799 12.9352 11.8069 12.9683L12.0473 14.9538ZM13.7079 14.3167C14.1995 13.9702 14.5958 13.5061 14.8568 12.9654L13.0556 12.0962C12.9447 12.3259 12.7738 12.5283 12.5557 12.682L13.7079 14.3167ZM14.8568 12.9654C15.1178 12.4246 15.2339 11.8265 15.1924 11.2276L13.1972 11.3657C13.2145 11.6155 13.1663 11.8666 13.0556 12.0962L14.8568 12.9654ZM15.1924 11.2276C15.151 10.6289 14.9537 10.0523 14.6215 9.55168L12.955 10.6574C13.0975 10.8722 13.1799 11.1159 13.1972 11.3657L15.1924 11.2276ZM14.4844 10.8225L15.5465 9.79264L14.1543 8.35676L13.0921 9.3866L14.4844 10.8225ZM13.8504 9.0747V9.88889H15.8504V9.0747H13.8504ZM13.8504 9.88889C13.8504 10.2479 13.9978 10.5856 14.2495 10.8296L15.6415 9.39343C15.7714 9.51934 15.8504 9.6969 15.8504 9.88889H13.8504ZM14.2495 10.8296C14.5002 11.0725 14.8337 11.2037 15.1752 11.2037V9.2037C15.3443 9.2037 15.5126 9.26854 15.6415 9.39343L14.2495 10.8296ZM15.1752 11.2037C15.5166 11.2037 15.8502 11.0725 16.1008 10.8296L14.7089 9.39343C14.8377 9.26854 15.006 9.2037 15.1752 9.2037V11.2037ZM16.1008 10.8296C16.3526 10.5856 16.5 10.2479 16.5 9.88889H14.5C14.5 9.6969 14.579 9.51934 14.7089 9.39343L16.1008 10.8296ZM16.5 9.88889V8.31481H14.5V9.88889H16.5ZM16.5 8.31481C16.5 7.95584 16.3526 7.61813 16.1008 7.37414L14.7089 8.81028C14.579 8.68436 14.5 8.5068 14.5 8.31481H16.5ZM16.1008 7.37414C15.8502 7.13117 15.5166 7 15.1752 7L15.1752 9C15.006 9 14.8377 8.93516 14.7089 8.81028L16.1008 7.37414ZM11.6023 12.3519C11.4078 12.3519 11.2201 12.2958 11.0631 12.1942L9.97596 13.8729C10.46 14.1863 11.0259 14.3519 11.6023 14.3519L11.6023 12.3519ZM11.0631 12.1942C10.9065 12.0927 10.7892 11.9518 10.7213 11.7928L8.88221 12.5788C9.10929 13.1101 9.49162 13.5592 9.97596 13.8729L11.0631 12.1942ZM10.7213 11.7928C10.6535 11.6343 10.6363 11.4617 10.6704 11.2955L8.71127 10.8934C8.59498 11.4601 8.65497 12.0471 8.88221 12.5788L10.7213 11.7928ZM10.6704 11.2955C10.7046 11.1291 10.7897 10.9718 10.9202 10.8454L9.52825 9.40925C9.1136 9.81113 8.82752 10.327 8.71127 10.8934L10.6704 11.2955ZM10.9202 10.8454C11.051 10.7186 11.2214 10.6289 11.4114 10.5923L11.0328 8.62845C10.4667 8.73759 9.94255 9.00769 9.52825 9.40925L10.9202 10.8454ZM11.4114 10.5923C11.6015 10.5556 11.7983 10.5747 11.9755 10.6459L12.7206 8.78985C12.1857 8.57508 11.5987 8.51934 11.0328 8.62845L11.4114 10.5923ZM11.9755 10.6459C12.1525 10.7169 12.2988 10.8353 12.3994 10.9811L14.046 9.84596C13.7183 9.3706 13.2558 9.00472 12.7206 8.78985L11.9755 10.6459ZM12.3994 10.9811C12.4997 11.1266 12.5511 11.2942 12.5511 11.463L14.5511 11.463C14.5511 10.8845 14.374 10.3217 14.046 9.84596L12.3994 10.9811ZM12.5511 11.4619C12.5509 11.6876 12.4586 11.9105 12.2838 12.08L13.6757 13.5161C14.2316 12.9773 14.5503 12.2399 14.5511 11.464L12.5511 11.4619ZM12.2838 12.08C12.1079 12.2504 11.863 12.3516 11.6013 12.3519L11.6033 14.3519C12.3749 14.3511 13.1208 14.0539 13.6757 13.5161L12.2838 12.08Z" fill="#B349C5" mask="url(#path-2-inside-1_1_1153)"/>
</svg>
