<svg width="24" height="24" viewBox="0 0 24 24" fill="none" xmlns="http://www.w3.org/2000/svg">
<path d="M17.8685 17.8695L17.8685 17.8695C18.6269 17.1132 19.2313 16.2169 19.6481 15.2303L19.6481 15.2303C20.4479 13.3368 20.5141 11.2134 19.8338 9.27382C19.1535 7.33421 17.7755 5.71735 15.9682 4.73829C14.1609 3.75923 12.0538 3.4881 10.0575 3.97773C8.06126 4.46736 6.31878 5.68268 5.16961 7.38687C4.02045 9.09107 3.54693 11.1621 3.84131 13.1963C4.1357 15.2306 5.1769 17.0824 6.76205 18.3909C8.34719 19.6994 10.3627 20.3709 12.4159 20.2745C14.4691 20.1781 16.4129 19.3208 17.8685 17.8695ZM3.5 12C3.5 7.30559 7.30559 3.5 12 3.5C16.6944 3.5 20.5 7.30559 20.5 12C20.5 16.6944 16.6944 20.5 12 20.5C7.30559 20.5 3.5 16.6944 3.5 12Z" stroke="white"/>
<path d="M8.47553 10H9.8311V11.4583H8.47553V10ZM14.1689 10H15.5245V11.4583H14.1689V10ZM14.7887 13.9083C14.579 14.4777 14.2146 14.966 13.7432 15.3093C13.2717 15.6527 12.715 15.8353 12.1457 15.8333H11.8543C11.2849 15.8353 10.7282 15.6527 10.2568 15.3094C9.78531 14.966 9.42095 14.4778 9.2112 13.9083L9.16785 13.7917H8L8.20442 14.3415C8.4962 15.1263 8.99986 15.799 9.65043 16.2728C10.301 16.7467 11.0686 17 11.8543 17H12.1457C12.9314 17 13.699 16.7467 14.3496 16.2728C15.0001 15.799 15.5038 15.1263 15.7956 14.3415L16 13.7917H14.832L14.7887 13.9083Z" fill="white"/>
</svg>
