<svg width="24" height="24" viewBox="0 0 24 24" fill="none" xmlns="http://www.w3.org/2000/svg">
<path d="M13.953 8.706C14.2932 8.706 14.5695 8.985 14.5695 9.3288V16.5738L13.953 17.1966C13.8716 17.1962 13.791 17.1799 13.7159 17.1484C13.6408 17.1169 13.5726 17.0709 13.5153 17.0131C13.458 16.9552 13.4126 16.8867 13.3818 16.8113C13.3509 16.7359 13.3352 16.6552 13.3356 16.5738V9.3288C13.3351 9.16441 13.3998 9.00654 13.5156 8.88979M13.953 8.706C13.7886 8.70695 13.6313 8.77305 13.5156 8.88979M13.953 8.706V9.206C13.9535 9.206 13.9539 9.206 13.9544 9.20601M13.953 8.706L13.9559 9.20599C13.9554 9.20599 13.9549 9.206 13.9544 9.20601M13.5156 8.88979L13.8707 9.2418C13.8481 9.26455 13.8355 9.29531 13.8356 9.32734L13.8356 9.3288L13.8356 16.5738V16.576C13.8355 16.5918 13.8386 16.6074 13.8445 16.622C13.8505 16.6366 13.8593 16.6499 13.8704 16.6611C13.8815 16.6723 13.8947 16.6812 13.9092 16.6873C13.923 16.693 13.9377 16.6962 13.9526 16.6966C13.9835 16.6957 14.013 16.683 14.0348 16.661C14.0571 16.6384 14.0696 16.6078 14.0695 16.576L14.0695 16.5738L14.0695 9.3288C14.0695 9.25697 14.0132 9.20679 13.9544 9.20601M13.5156 8.88979L13.8707 9.2418C13.8929 9.21941 13.9229 9.20658 13.9544 9.20601M5.1537 6.2755H3.61891C3.58736 6.27519 3.55719 6.26247 3.53493 6.24008C3.51251 6.21754 3.49995 6.18702 3.5 6.15523V6.1545C3.5 6.08215 3.55622 6.0317 3.6174 6.0317H8.5404H9.02697L9.04021 5.54531C9.04961 5.20022 9.17833 4.82237 9.45291 4.4172L9.45302 4.41703C9.81584 3.88118 10.3858 3.56144 11.233 3.50004L12.9606 3.50442C13.5206 3.57865 14.0178 3.84395 14.4426 4.3111L14.4428 4.31136C14.78 4.68161 14.9454 5.09517 14.9552 5.54087L14.9659 6.0299H15.4551H20.3806C20.4123 6.03032 20.4426 6.04319 20.465 6.06576L20.8203 5.71401L20.465 6.06577C20.4875 6.08855 20.5001 6.11936 20.5 6.15142L20.5 6.15578C20.5001 6.17155 20.497 6.18718 20.4911 6.20178L20.9538 6.39111L20.4911 6.20179C20.4851 6.21638 20.4763 6.22966 20.4652 6.24086C20.4541 6.25206 20.4409 6.26096 20.4263 6.26706L20.6197 6.72817L20.4263 6.26706C20.412 6.27306 20.3967 6.27623 20.3812 6.2764L18.7305 6.2755L18.2302 6.27523V6.7755V17.2398C18.2302 18.3349 18.0237 19.1589 17.6556 19.6952C17.3075 20.2023 16.7837 20.5 15.9933 20.5H7.8771C7.0861 20.5 6.56664 20.204 6.22237 19.6994C5.85743 19.1645 5.6537 18.3406 5.6537 17.2398V6.7755V6.2755H5.1537ZM17.9954 6.77546L17.9954 6.2755H17.4954H6.3876H5.8876V6.7755V17.2398C5.8876 18.1167 6.00498 18.8548 6.31825 19.3877C6.48015 19.6631 6.69637 19.8869 6.97272 20.0387C7.2475 20.1896 7.55445 20.2544 7.8771 20.2544H15.9933C16.6697 20.2544 17.2152 19.9663 17.5592 19.3868C17.876 18.8531 17.9963 18.1148 17.9963 17.2398V17.2398L17.9954 6.77546ZM9.16089 16.5738L9.1609 16.576C9.16097 16.5918 9.15793 16.6074 9.15196 16.622C9.14599 16.6366 9.1372 16.6499 9.1261 16.6611C9.11499 16.6723 9.10179 16.6812 9.08725 16.6873C9.07348 16.693 9.05876 16.6962 9.04386 16.6966C9.01296 16.6957 8.98353 16.683 8.96174 16.661C8.93935 16.6384 8.92686 16.6078 8.927 16.576V16.5738V9.3288C8.927 9.25736 8.98411 9.206 9.0444 9.206C9.10374 9.206 9.1609 9.2564 9.1609 9.3288L9.16089 16.5738ZM11.6152 16.5738L11.6152 16.576C11.6153 16.5918 11.6122 16.6074 11.6063 16.622C11.6003 16.6366 11.5915 16.6499 11.5804 16.6611C11.5693 16.6723 11.5561 16.6812 11.5415 16.6873C11.5278 16.693 11.5131 16.6962 11.4982 16.6966C11.4673 16.6957 11.4378 16.683 11.416 16.661C11.3937 16.6384 11.3812 16.6078 11.3813 16.576V16.5738V9.3288C11.3813 9.2564 11.4385 9.206 11.4978 9.206C11.5589 9.206 11.6152 9.2564 11.6152 9.3288L11.6152 16.5738ZM11.2589 3.7438L11.2412 3.74378L11.2234 3.74502C10.5386 3.79302 9.99541 4.03993 9.64441 4.55833C9.43762 4.86225 9.30022 5.17377 9.27736 5.49533L9.23927 6.03091L9.7762 6.0308L14.2204 6.0299L14.7449 6.02979L14.7197 5.50587C14.7007 5.11019 14.5394 4.7729 14.2733 4.48054L14.2732 4.48047C13.8999 4.07048 13.4529 3.81303 12.9867 3.75009L12.9537 3.74564L12.9203 3.7456L11.2589 3.7438Z" fill="#323232" stroke="#7948EC"/>
</svg>
