<svg width="32" height="32" viewBox="0 0 32 32" fill="none" xmlns="http://www.w3.org/2000/svg">
<circle cx="16" cy="16" r="16" fill="#FFE6E6"/>
<mask id="path-2-inside-1_226_10101" fill="white">
<path d="M15.4774 10L16.6618 10.003C17.1286 10.0594 17.5378 10.279 17.875 10.6498C18.1504 10.9522 18.295 11.3038 18.3034 11.6866H21.5884C21.6981 11.6872 21.8031 11.7314 21.8802 11.8093C21.9574 11.8873 22.0005 11.9927 22 12.1024C22.0002 12.1567 21.9898 12.2105 21.9692 12.2607C21.9487 12.311 21.9184 12.3567 21.8802 12.3952C21.842 12.4338 21.7965 12.4645 21.7465 12.4854C21.6964 12.5064 21.6427 12.5174 21.5884 12.5176L20.4868 12.517V19.4932C20.4868 21.019 19.9174 22 18.6622 22H13.2514C11.9962 22 11.4358 21.0244 11.4358 19.4932V12.517H10.4116C10.3022 12.5165 10.1974 12.4727 10.1202 12.3951C10.0431 12.3175 9.99984 12.2124 10 12.103C10 11.8732 10.1842 11.6878 10.4116 11.6878H13.6936C13.702 11.3794 13.8166 11.0668 14.026 10.7578C14.338 10.297 14.8252 10.0444 15.4774 10ZM19.6636 12.517H12.2584V19.4932C12.2584 20.626 12.5704 21.1696 13.2514 21.1696H18.6622C19.3456 21.1696 19.6642 20.6212 19.6642 19.4932L19.6636 12.517ZM14.0296 13.804C14.2564 13.804 14.4406 13.99 14.4406 14.2192V19.0492C14.4408 19.1035 14.4304 19.1573 14.4098 19.2075C14.3893 19.2578 14.359 19.3035 14.3208 19.342C14.2826 19.3806 14.2371 19.4113 14.1871 19.4322C14.137 19.4532 14.0833 19.4642 14.029 19.4644C13.9195 19.4638 13.8147 19.4197 13.7376 19.3418C13.6605 19.264 13.6175 19.1587 13.618 19.0492V14.2192C13.618 13.99 13.8028 13.804 14.0296 13.804ZM15.6652 13.804C15.8932 13.804 16.0768 13.99 16.0768 14.2192V19.0492C16.077 19.1035 16.0666 19.1573 16.046 19.2075C16.0255 19.2578 15.9952 19.3035 15.957 19.342C15.9188 19.3806 15.8733 19.4113 15.8233 19.4322C15.7732 19.4532 15.7195 19.4642 15.6652 19.4644C15.5557 19.4638 15.4509 19.4197 15.3738 19.3418C15.2967 19.264 15.2537 19.1587 15.2542 19.0492V14.2192C15.2542 13.99 15.4384 13.804 15.6652 13.804ZM17.302 13.804C17.5288 13.804 17.713 13.99 17.713 14.2192V19.0492C17.7135 19.1587 17.6705 19.264 17.5934 19.3418C17.5163 19.4197 17.4115 19.4638 17.302 19.4644C17.2477 19.4642 17.194 19.4532 17.1439 19.4322C17.0939 19.4113 17.0484 19.3806 17.0102 19.342C16.972 19.3035 16.9417 19.2578 16.9212 19.2075C16.9006 19.1573 16.8902 19.1035 16.8904 19.0492V14.2192C16.8901 14.1096 16.9332 14.0044 17.0104 13.9265C17.0875 13.8487 17.1924 13.8046 17.302 13.804ZM15.5056 10.8292C15.1204 10.8562 14.8666 10.9876 14.7052 11.2264C14.5864 11.401 14.527 11.5522 14.5174 11.6872L17.4802 11.6866C17.4718 11.512 17.4028 11.3584 17.269 11.2114C17.0614 10.9834 16.831 10.8598 16.6132 10.8304L15.5056 10.8292Z"/>
</mask>
<path d="M15.4774 10L15.4799 9L15.4447 8.99991L15.4095 9.00231L15.4774 10ZM16.6618 10.003L16.7817 9.01022L16.7233 9.00315L16.6643 9.003L16.6618 10.003ZM17.875 10.6498L17.1352 11.3226L17.1357 11.3231L17.875 10.6498ZM18.3034 11.6866L17.3036 11.7085L17.3251 12.6866H18.3034V11.6866ZM21.5884 11.6866L21.5942 10.6866H21.5884V11.6866ZM22 12.1024L21 12.098L21 12.1068L22 12.1024ZM21.5884 12.5176L21.5879 13.5176L21.5927 13.5176L21.5884 12.5176ZM20.4868 12.517L20.4873 11.517L19.4868 11.5165V12.517H20.4868ZM11.4358 12.517H12.4358V11.517H11.4358V12.517ZM10.4116 12.517L10.4072 13.517H10.4116V12.517ZM10 12.103L11 12.1045V12.103H10ZM13.6936 11.6878V12.6878H14.6667L14.6932 11.715L13.6936 11.6878ZM14.026 10.7578L14.8538 11.3188L14.854 11.3185L14.026 10.7578ZM19.6636 12.517L20.6636 12.5169L20.6635 11.517H19.6636V12.517ZM12.2584 12.517V11.517H11.2584V12.517H12.2584ZM19.6642 19.4932H20.6642V19.4931L19.6642 19.4932ZM14.4406 19.0492H13.4406L13.4406 19.0536L14.4406 19.0492ZM14.029 19.4644L14.0232 20.4644L14.0333 20.4644L14.029 19.4644ZM13.618 19.0492L14.618 19.0536V19.0492H13.618ZM16.0768 19.0492H15.0768L15.0768 19.0536L16.0768 19.0492ZM15.6652 19.4644L15.6594 20.4644L15.6695 20.4644L15.6652 19.4644ZM15.2542 19.0492L16.2542 19.0536V19.0492H15.2542ZM17.302 13.804V12.804L17.2962 12.804L17.302 13.804ZM17.713 19.0492H16.713L16.713 19.0536L17.713 19.0492ZM17.302 19.4644L17.2977 20.4644L17.3078 20.4644L17.302 19.4644ZM16.8904 19.0492L17.8904 19.0536V19.0492H16.8904ZM16.8904 14.2192H17.8904L17.8904 14.2163L16.8904 14.2192ZM15.5056 10.8292L15.5067 9.8292L15.4711 9.82916L15.4357 9.83165L15.5056 10.8292ZM14.7052 11.2264L15.532 11.7889L15.5337 11.7864L14.7052 11.2264ZM14.5174 11.6872L13.5199 11.6163L13.4437 12.6874L14.5176 12.6872L14.5174 11.6872ZM17.4802 11.6866L17.4804 12.6866L18.5295 12.6864L18.479 11.6385L17.4802 11.6866ZM17.269 11.2114L18.0085 10.5383L18.0084 10.5381L17.269 11.2114ZM16.6132 10.8304L16.747 9.83939L16.6809 9.83047L16.6143 9.8304L16.6132 10.8304ZM15.4749 11L16.6593 11.003L16.6643 9.003L15.4799 9L15.4749 11ZM16.5418 10.9958C16.751 11.021 16.9459 11.1144 17.1352 11.3226L18.6148 9.97701C18.1297 9.44357 17.5062 9.09776 16.7817 9.01022L16.5418 10.9958ZM17.1357 11.3231C17.2592 11.4588 17.3009 11.5827 17.3036 11.7085L19.3032 11.6647C19.2891 11.0249 19.0416 10.4456 18.6143 9.97647L17.1357 11.3231ZM18.3034 12.6866H21.5884V10.6866H18.3034V12.6866ZM21.5826 12.6866C21.4273 12.6857 21.2788 12.6232 21.1695 12.5128L22.5909 11.1058C22.3273 10.8396 21.9688 10.6888 21.5942 10.6866L21.5826 12.6866ZM21.1695 12.5128C21.0603 12.4025 20.9993 12.2533 21 12.098L23 12.1068C23.0016 11.7321 22.8545 11.3721 22.5909 11.1058L21.1695 12.5128ZM21 12.1068C20.9997 12.0297 21.0145 11.9534 21.0437 11.8821L22.8948 12.6394C22.965 12.4676 23.0008 12.2837 23 12.098L21 12.1068ZM21.0437 11.8821C21.0728 11.8108 21.1158 11.7459 21.17 11.6912L22.5904 13.0993C22.721 12.9674 22.8245 12.8112 22.8948 12.6394L21.0437 11.8821ZM21.17 11.6912C21.2242 11.6365 21.2887 11.593 21.3598 11.5632L22.1332 13.4077C22.3043 13.3359 22.4597 13.2311 22.5904 13.0993L21.17 11.6912ZM21.3598 11.5632C21.4308 11.5334 21.507 11.5179 21.5841 11.5176L21.5927 13.5176C21.7784 13.5168 21.962 13.4794 22.1332 13.4077L21.3598 11.5632ZM21.5889 11.5176L20.4873 11.517L20.4863 13.517L21.5879 13.5176L21.5889 11.5176ZM19.4868 12.517V19.4932H21.4868V12.517H19.4868ZM19.4868 19.4932C19.4868 20.1576 19.3585 20.5522 19.2207 20.7529C19.1231 20.8952 18.9878 21 18.6622 21V23C19.5918 23 20.3688 22.6143 20.8697 21.8847C21.3304 21.2134 21.4868 20.3546 21.4868 19.4932H19.4868ZM18.6622 21H13.2514V23H18.6622V21ZM13.2514 21C12.9246 21 12.7935 20.8958 12.6989 20.7572C12.5631 20.558 12.4358 20.1636 12.4358 19.4932H10.4358C10.4358 20.354 10.5887 21.213 11.0469 21.8844C11.5463 22.6164 12.323 23 13.2514 23V21ZM12.4358 19.4932V12.517H10.4358V19.4932H12.4358ZM11.4358 11.517H10.4116V13.517H11.4358V11.517ZM10.416 11.517C10.5712 11.5177 10.7199 11.5799 10.8294 11.69L9.41107 13.1001C9.67487 13.3654 10.0331 13.5154 10.4072 13.517L10.416 11.517ZM10.8294 11.69C10.9389 11.8001 11.0002 11.9492 11 12.1045L9 12.1015C8.99945 12.4757 9.14728 12.8348 9.41107 13.1001L10.8294 11.69ZM11 12.103C11 12.4179 10.744 12.6878 10.4116 12.6878V10.6878C9.62436 10.6878 9 11.3285 9 12.103H11ZM10.4116 12.6878H13.6936V10.6878H10.4116V12.6878ZM14.6932 11.715C14.6952 11.6416 14.7235 11.5111 14.8538 11.3188L13.1982 10.1968C12.9097 10.6225 12.7088 11.1172 12.694 11.6606L14.6932 11.715ZM14.854 11.3185C14.9605 11.1612 15.1365 11.0255 15.5453 10.9977L15.4095 9.00231C14.5139 9.06328 13.7155 9.43282 13.198 10.1971L14.854 11.3185ZM19.6636 11.517H12.2584V13.517H19.6636V11.517ZM11.2584 12.517V19.4932H13.2584V12.517H11.2584ZM11.2584 19.4932C11.2584 20.1143 11.3372 20.7521 11.6374 21.263C11.7981 21.5363 12.0249 21.7772 12.3275 21.9435C12.6271 22.108 12.9466 22.1696 13.2514 22.1696V20.1696C13.2157 20.1696 13.2408 20.1633 13.2903 20.1905C13.343 20.2194 13.364 20.2536 13.3616 20.2494C13.3544 20.2372 13.3256 20.1802 13.3003 20.0466C13.2752 19.9148 13.2584 19.7339 13.2584 19.4932H11.2584ZM13.2514 22.1696H18.6622V20.1696H13.2514V22.1696ZM18.6622 22.1696C19.3316 22.1696 19.9216 21.8675 20.2794 21.2648C20.5829 20.7535 20.6642 20.1153 20.6642 19.4932H18.6642C18.6642 19.7314 18.6471 19.9108 18.6219 20.0415C18.5963 20.1738 18.5673 20.231 18.5596 20.244C18.5564 20.2492 18.5761 20.2169 18.6265 20.1893C18.674 20.1633 18.6976 20.1696 18.6622 20.1696V22.1696ZM20.6642 19.4931L20.6636 12.5169L18.6636 12.5171L18.6642 19.4933L20.6642 19.4931ZM14.0296 14.804C13.6947 14.804 13.4406 14.5328 13.4406 14.2192H15.4406C15.4406 13.4472 14.8181 12.804 14.0296 12.804V14.804ZM13.4406 14.2192V19.0492H15.4406V14.2192H13.4406ZM13.4406 19.0536C13.4403 18.9765 13.4551 18.9002 13.4843 18.8289L15.3354 19.5862C15.4056 19.4144 15.4414 19.2304 15.4406 19.0448L13.4406 19.0536ZM13.4843 18.8289C13.5135 18.7576 13.5564 18.6927 13.6106 18.638L15.031 20.0461C15.1616 19.9143 15.2651 19.758 15.3354 19.5862L13.4843 18.8289ZM13.6106 18.638C13.6648 18.5833 13.7293 18.5398 13.8004 18.51L14.5738 20.3545C14.7449 20.2827 14.9003 20.1779 15.031 20.0461L13.6106 18.638ZM13.8004 18.51C13.8714 18.4802 13.9476 18.4647 14.0247 18.4644L14.0333 20.4644C14.219 20.4636 14.4026 20.4262 14.5738 20.3545L13.8004 18.51ZM14.0348 18.4644C14.1902 18.4653 14.3389 18.5279 14.4483 18.6383L13.0269 20.0453C13.2904 20.3115 13.6487 20.4622 14.0232 20.4644L14.0348 18.4644ZM14.4483 18.6383C14.5576 18.7488 14.6187 18.8981 14.618 19.0536L12.618 19.0448C12.6164 19.4193 12.7634 19.7792 13.0269 20.0453L14.4483 18.6383ZM14.618 19.0492V14.2192H12.618V19.0492H14.618ZM14.618 14.2192C14.618 14.5347 14.3626 14.804 14.0296 14.804V12.804C13.243 12.804 12.618 13.4453 12.618 14.2192H14.618ZM15.6652 14.804C15.3315 14.804 15.0768 14.5328 15.0768 14.2192H17.0768C17.0768 13.4472 16.4549 12.804 15.6652 12.804V14.804ZM15.0768 14.2192V19.0492H17.0768V14.2192H15.0768ZM15.0768 19.0536C15.0765 18.9765 15.0913 18.9002 15.1205 18.8289L16.9716 19.5862C17.0418 19.4144 17.0776 19.2304 17.0768 19.0448L15.0768 19.0536ZM15.1205 18.8289C15.1497 18.7576 15.1926 18.6927 15.2468 18.638L16.6672 20.0461C16.7978 19.9143 16.9013 19.758 16.9716 19.5862L15.1205 18.8289ZM15.2468 18.638C15.301 18.5833 15.3655 18.5398 15.4366 18.51L16.21 20.3545C16.3811 20.2827 16.5365 20.1779 16.6672 20.0461L15.2468 18.638ZM15.4366 18.51C15.5076 18.4803 15.5838 18.4647 15.6609 18.4644L15.6695 20.4644C15.8552 20.4636 16.0388 20.4262 16.21 20.3545L15.4366 18.51ZM15.671 18.4644C15.8264 18.4653 15.9751 18.5279 16.0845 18.6383L14.6631 20.0453C14.9266 20.3115 15.2849 20.4622 15.6594 20.4644L15.671 18.4644ZM16.0845 18.6383C16.1938 18.7488 16.2549 18.8981 16.2542 19.0536L14.2542 19.0448C14.2526 19.4193 14.3996 19.7792 14.6631 20.0453L16.0845 18.6383ZM16.2542 19.0492V14.2192H14.2542V19.0492H16.2542ZM16.2542 14.2192C16.2542 14.5328 16.0001 14.804 15.6652 14.804V12.804C14.8767 12.804 14.2542 13.4472 14.2542 14.2192H16.2542ZM17.302 14.804C16.9671 14.804 16.713 14.5328 16.713 14.2192H18.713C18.713 13.4472 18.0905 12.804 17.302 12.804V14.804ZM16.713 14.2192V19.0492H18.713V14.2192H16.713ZM16.713 19.0536C16.7123 18.8981 16.7734 18.7488 16.8827 18.6383L18.3041 20.0453C18.5676 19.7792 18.7146 19.4193 18.713 19.0448L16.713 19.0536ZM16.8827 18.6383C16.9921 18.5279 17.1408 18.4653 17.2962 18.4644L17.3078 20.4644C17.6823 20.4622 18.0406 20.3115 18.3041 20.0453L16.8827 18.6383ZM17.3063 18.4644C17.3834 18.4647 17.4596 18.4802 17.5306 18.51L16.7572 20.3545C16.9284 20.4262 17.112 20.4636 17.2977 20.4644L17.3063 18.4644ZM17.5306 18.51C17.6017 18.5398 17.6662 18.5833 17.7204 18.638L16.3 20.0461C16.4307 20.1779 16.5861 20.2827 16.7572 20.3545L17.5306 18.51ZM17.7204 18.638C17.7746 18.6927 17.8175 18.7576 17.8467 18.8289L15.9956 19.5862C16.0659 19.758 16.1694 19.9143 16.3 20.0461L17.7204 18.638ZM17.8467 18.8289C17.8759 18.9002 17.8907 18.9765 17.8904 19.0536L15.8904 19.0448C15.8896 19.2304 15.9254 19.4144 15.9956 19.5862L17.8467 18.8289ZM17.8904 19.0492V14.2192H15.8904V19.0492H17.8904ZM17.8904 14.2163C17.8908 14.3714 17.8298 14.5204 17.7206 14.6305L16.3002 13.2225C16.0367 13.4883 15.8893 13.8478 15.8904 14.2221L17.8904 14.2163ZM17.7206 14.6305C17.6113 14.7407 17.4629 14.8031 17.3078 14.804L17.2962 12.804C16.9219 12.8062 16.5637 12.9567 16.3002 13.2225L17.7206 14.6305ZM15.4357 9.83165C14.8354 9.87373 14.2558 10.1055 13.8767 10.6664L15.5337 11.7864C15.5292 11.793 15.52 11.8047 15.5057 11.8173C15.4914 11.83 15.4781 11.8381 15.4697 11.8423C15.4543 11.85 15.4777 11.8336 15.5755 11.8268L15.4357 9.83165ZM13.8784 10.6639C13.7024 10.9225 13.5465 11.2431 13.5199 11.6163L15.5149 11.7581C15.5111 11.8109 15.4993 11.8419 15.4976 11.8462C15.4967 11.8482 15.4981 11.8444 15.5036 11.8344C15.5091 11.8244 15.5181 11.8093 15.532 11.7889L13.8784 10.6639ZM14.5176 12.6872L17.4804 12.6866L17.48 10.6866L14.5172 10.6872L14.5176 12.6872ZM18.479 11.6385C18.4578 11.1964 18.2731 10.829 18.0085 10.5383L16.5295 11.8845C16.537 11.8928 16.5235 11.88 16.5082 11.8457C16.4918 11.8088 16.483 11.7689 16.4814 11.7347L18.479 11.6385ZM18.0084 10.5381C17.677 10.1742 17.2438 9.90646 16.747 9.83939L16.4794 11.8214C16.4182 11.8131 16.4458 11.7926 16.5296 11.8847L18.0084 10.5381ZM16.6143 9.8304L15.5067 9.8292L15.5045 11.8292L16.6121 11.8304L16.6143 9.8304Z" fill="#D34949" mask="url(#path-2-inside-1_226_10101)"/>
</svg>
