<svg width="48" height="48" viewBox="0 0 48 48" fill="none" xmlns="http://www.w3.org/2000/svg">
<circle cx="24" cy="24" r="24" fill="#FFF4E8"/>
<path d="M16.11 24.18H15.5655L15.6118 24.7225C15.6969 25.7185 15.9598 26.6912 16.3883 27.5943L16.5238 27.88H16.84H17.4063L17.1757 28.5719L17.1657 28.6019L17.0625 28.9114C16.0527 27.485 15.5 25.771 15.5 24C15.5 21.7457 16.3955 19.5837 17.9896 17.9896C19.5158 16.4634 21.5626 15.5775 23.7126 15.5049L23.1416 15.7229C22.0649 16.1341 21.1805 16.9319 20.6609 17.9603C20.4472 18.3228 20.2592 18.6998 20.0981 19.0886L19.8116 19.78H20.56H23.32H23.82V19.28V16.19V15.5019C23.8799 15.5006 23.9399 15.5 24 15.5C24.0601 15.5 24.1201 15.5006 24.18 15.5019V16.19V19.28V19.7818L24.6818 19.78L27.4418 19.77L28.187 19.7673L27.902 19.0788C27.7408 18.6895 27.552 18.3122 27.3388 17.9497C26.8171 16.9252 25.9327 16.1312 24.8576 15.7226L24.2843 15.5048C26.4355 15.5767 28.4835 16.4627 30.0104 17.9896C31.6045 19.5837 32.5 21.7457 32.5 24C32.5 25.5089 32.0988 26.9764 31.3555 28.26H30.35H28.59H28.2373L28.119 28.5923C27.8345 29.3913 27.4311 30.1424 26.9226 30.8203L26.8029 30.8732C27.0088 30.6204 27.1887 30.345 27.3387 30.0504C27.5525 29.6877 27.7407 29.3104 27.9019 28.9214L28.1884 28.23H27.44H24.68H24.18V28.73V31.77V31.81V32.4981C24.1201 32.4994 24.0601 32.5 24 32.5C21.7457 32.5 19.5837 31.6045 17.9896 30.0104C17.7516 29.7724 17.5292 29.5217 17.323 29.26H17.4251C18.2643 30.3242 19.3467 31.1734 20.5832 31.7352L21.1831 30.971C20.6199 30.2544 20.1768 29.451 19.871 28.5923L19.7527 28.26H19.4H17.9253L17.6464 27.88H19H19.6344L19.4861 27.2631C19.2807 26.4084 19.1581 25.5362 19.1195 24.658L19.0985 24.18H18.62H16.11ZM30.7482 29.0624L31.3485 28.2719C30.9826 28.9015 30.5342 29.4866 30.0104 30.0104C28.4835 31.5373 26.4355 32.4233 24.2843 32.4952L24.8576 32.2774C25.6117 31.9908 26.272 31.5146 26.7791 30.9022L26.7249 31.1187L26.7149 31.1587L27.3008 31.4458L27.4119 31.6974C28.7293 31.1159 29.8772 30.2092 30.7482 29.0624ZM28.3836 20.5029L28.2856 20.13H27.9H24.68H24.18V20.63V23.33V23.83H24.68H28.31H28.8324L28.8095 23.3081C28.7679 22.3603 28.6245 21.42 28.3836 20.5029ZM23.82 20.63V20.13H23.32H20.11H19.7244L19.6264 20.5029C19.3855 21.42 19.2421 22.3603 19.2005 23.3081L19.1776 23.83H19.7H23.32H23.82V23.33V20.63ZM18.62 23.82H19.0989L19.1195 23.3416C19.1575 22.4636 19.2802 21.5914 19.4861 20.7371L19.6348 20.12H19H16.84H16.5238L16.3883 20.4057C15.9598 21.3088 15.6969 22.2815 15.6118 23.2775L15.5655 23.82H16.11H18.62ZM19.7 24.18H19.1772L19.2005 24.7022C19.2427 25.6496 19.3854 26.5898 19.6264 27.507L19.7244 27.88H20.11H23.32H23.82V27.38V24.68V24.18H23.32H19.7ZM23.83 28.68V28.1782L23.3282 28.18L20.5682 28.19L19.8227 28.1927L20.1081 28.8814C20.2693 29.2704 20.4575 29.6477 20.6713 30.0104C21.193 31.0349 22.0773 31.8288 23.1524 32.2374L23.83 32.4949V31.77V28.68ZM24.18 27.33V27.83H24.68H27.89H28.2756L28.3736 27.457C28.6146 26.5398 28.7573 25.5996 28.7995 24.6522L28.8228 24.13H28.3H24.68H24.18V24.63V27.33ZM29.39 24.13H28.9801L28.8997 24.5319L28.8897 24.5819L28.8824 24.6186L28.8806 24.656C28.8391 25.5176 28.7166 26.3734 28.514 27.2127L28.365 27.83H29H31.17H31.4862L31.6217 27.5443C32.0502 26.6412 32.3131 25.6685 32.3982 24.6725L32.4445 24.13H31.9H29.39ZM28.8907 23.3056L28.9145 23.7706L29.38 23.7799L31.88 23.8299L32.4355 23.841L32.3882 23.2874C32.3031 22.2919 32.0404 21.3198 31.6118 20.4158L31.4763 20.13H31.16H29H28.3622L28.5145 20.7494C28.7205 21.5876 28.8465 22.4435 28.8907 23.3056ZM28.129 19.4477L28.2473 19.78H28.6H30.0989H30.35H30.39V19.28V19.2502L30.751 18.9813C29.8854 17.819 28.7369 16.8973 27.4148 16.3038L26.8169 17.069C27.3801 17.7856 27.8232 18.589 28.129 19.4477ZM21.1831 17.069L20.5852 16.3038C19.2631 16.8973 18.1146 17.819 17.249 18.9813L16.6542 19.78H17.65H19.4H19.7527L19.871 19.4477C20.1768 18.589 20.6199 17.7856 21.1831 17.069Z" fill="#323232" stroke="#FE8700"/>
</svg>
