<svg width="48" height="48" viewBox="0 0 48 48" fill="none" xmlns="http://www.w3.org/2000/svg">
<circle cx="24" cy="24" r="24" fill="#FFE6E6"/>
<path d="M25.8 24L22.65 25.8V22.2L25.8 24Z" fill="#D34949"/>
<path d="M15 24.6363V23.3628C15 20.7573 15 19.4541 15.8145 18.6162C16.6299 17.7774 17.9133 17.7414 20.4792 17.6685C21.6942 17.6343 22.9362 17.61 24 17.61C25.0629 17.61 26.3049 17.6343 27.5208 17.6685C30.0867 17.7414 31.3701 17.7774 32.1846 18.6162C33 19.4541 33 20.7582 33 23.3628V24.6363C33 27.2427 33 28.545 32.1855 29.3838C31.3701 30.2217 30.0876 30.2586 27.5208 30.3306C26.3058 30.3657 25.0638 30.39 24 30.39C22.8262 30.3865 21.6525 30.3667 20.4792 30.3306C17.9133 30.2586 16.6299 30.2226 15.8145 29.3838C15 28.545 15 27.2418 15 24.6372V24.6363Z" stroke="#D34949"/>
</svg>
